<?xml version="1.0" standalone="no"?>
<!DOCTYPE svg PUBLIC "-//W3C//DTD SVG 20010904//EN"
 "http://www.w3.org/TR/2001/REC-SVG-20010904/DTD/svg10.dtd">
<svg version="1.0" xmlns="http://www.w3.org/2000/svg"
 width="3000.000000pt" height="2000.000000pt" viewBox="0 0 3000.000000 2000.000000"
 preserveAspectRatio="xMidYMid meet">

<g transform="translate(0.000000,2000.000000) scale(0.100000,-0.100000)"
fill="#000000" stroke="none">
<path d="M0 19717 l0 -282 720 -720 720 -720 -72 -72 -73 -73 -647 647 -648
648 0 -2655 0 -2655 2400 -2400 2400 -2400 925 925 c509 509 924 928 923 932
-2 4 -372 378 -822 830 -451 453 -828 832 -838 843 -23 27 -23 38 1 30 15 -4
20 0 23 17 2 15 9 22 21 20 10 -2 17 3 17 13 0 10 9 19 20 22 11 3 20 12 20
20 0 8 9 17 20 20 14 4 19 11 15 23 -3 10 -1 21 5 25 6 3 8 11 5 16 -4 5 5 13
19 19 17 6 24 14 20 25 -5 11 0 15 17 13 18 -2 24 2 24 17 0 12 9 21 23 25 13
3 23 10 23 15 0 6 9 13 20 17 10 4 19 14 19 22 0 7 9 16 21 19 13 3 19 12 17
24 -2 13 2 17 15 15 12 -2 20 4 24 16 3 11 13 22 24 25 12 3 17 11 13 21 -4
11 2 19 20 26 18 7 24 14 19 26 -5 13 -2 16 10 11 23 -9 31 9 10 23 -16 10
-16 11 -1 6 9 -3 19 0 22 7 2 7 5 5 5 -5 1 -25 17 -30 32 -11 10 11 10 14 2 9
-9 -5 -11 -2 -7 8 3 9 14 16 23 16 9 0 394 -378 856 -840 l840 -840 827 827
828 828 2684 -2684 2685 -2685 860 859 c473 473 863 861 868 862 4 2 994 -983
2198 -2187 l2190 -2190 -866 -864 -866 -864 1691 -1691 1691 -1691 3983 0
3982 0 0 2947 0 2948 -515 -515 c-283 -283 -516 -512 -519 -510 -3 3 -770 769
-1705 1704 -1120 1118 -1704 1695 -1712 1690 -7 -4 -10 -3 -5 4 8 13 -223 244
-237 235 -5 -3 -7 -2 -4 4 9 14 -59 86 -74 77 -8 -4 -10 -3 -5 5 5 8 -97 117
-288 309 l-296 298 2165 2164 2165 2165 263 -265 c145 -146 377 -377 515 -515
l252 -250 0 108 c0 101 -1 107 -20 107 -14 0 -20 6 -18 18 2 11 -4 18 -19 20
-17 3 -23 10 -23 28 0 20 -4 24 -19 19 -13 -4 -20 -1 -23 11 -2 10 -19 23 -38
30 -19 7 -27 13 -17 13 24 1 22 21 -3 21 -13 0 -20 7 -20 20 0 11 -7 23 -16
27 -22 8 -59 45 -67 66 -3 9 -13 17 -22 17 -9 0 -15 9 -15 25 0 18 -4 23 -16
18 -12 -4 -15 -2 -12 8 3 8 12 13 19 11 8 -2 11 0 6 4 -4 4 -17 9 -28 11 -16
2 -19 -1 -14 -16 5 -15 1 -19 -14 -18 -18 1 -17 4 10 42 16 22 105 117 199
210 l170 170 0 759 0 759 -2507 2508 -2508 2509 -1105 0 -1105 0 310 -310 310
-310 -428 0 -427 0 0 310 0 310 -2252 0 c-1238 0 -2249 -2 -2247 -5 2 -2 377
-377 833 -834 455 -456 827 -834 825 -840 -2 -6 -46 -53 -97 -105 -87 -88 -93
-96 -81 -118 6 -13 8 -20 4 -16 -4 4 -17 3 -29 -3 -20 -10 -20 -10 -2 5 11 9
17 19 13 22 -3 4 -90 -77 -192 -180 -103 -102 -192 -186 -198 -186 -7 0 -520
509 -1142 1130 l-1129 1130 -5061 0 -5060 0 425 -425 425 -425 -1028 0 -1027
0 0 425 0 425 -2760 0 -2760 0 0 -283z m3987 167 c4 -12 -203 -225 -763 -785
-683 -683 -770 -767 -784 -754 -13 14 71 101 755 785 424 424 773 770 778 770
4 0 10 -7 14 -16z m5738 -4 c10 -11 16 -20 13 -20 -3 0 -13 9 -23 20 -10 11
-16 20 -13 20 3 0 13 -9 23 -20z m-15 -21 c0 -14 -17 -10 -23 5 -4 10 -1 13 9
9 7 -3 14 -9 14 -14z m141 -101 c46 -44 83 -84 81 -89 -1 -6 1 -8 5 -6 5 3
572 -556 1261 -1241 l1253 -1247 -144 -143 -143 -143 -1352 1356 c-744 745
-1352 1361 -1352 1368 0 7 5 4 11 -5 5 -10 15 -18 20 -18 6 0 7 5 4 10 -3 6
-1 10 5 10 7 0 10 -6 7 -14 -3 -8 1 -22 8 -33 8 -10 15 -13 15 -7 0 6 -3 14
-6 17 -11 10 -13 67 -3 67 5 0 9 -4 9 -10 0 -23 19 -8 25 20 5 21 13 30 26 30
12 0 19 7 19 20 0 12 7 20 16 20 9 0 18 9 21 20 3 11 14 20 24 20 12 0 19 7
19 19 0 10 9 21 20 24 11 3 20 14 20 25 0 36 45 13 131 -70z m-6528 -750
c-685 -685 -773 -770 -788 -758 -15 12 69 99 757 787 687 687 774 771 788 758
13 -14 -71 -101 -757 -787z m855 689 c9 -10 -166 -190 -762 -786 -687 -687
-774 -771 -786 -756 -12 15 73 103 756 786 423 423 772 769 775 769 4 0 11 -6
17 -13z m5257 -17 c3 -6 -1 -7 -9 -4 -18 7 -21 14 -7 14 6 0 13 -4 16 -10z
m80 -9 c3 -5 1 -12 -5 -16 -5 -3 -10 1 -10 9 0 18 6 21 15 7z m-81 -27 c7 -19
2 -18 -19 6 -16 17 -16 20 -3 15 9 -4 19 -13 22 -21z m56 -16 c0 -6 -7 -5 -15
2 -8 7 -15 17 -15 22 0 6 7 5 15 -2 8 -7 15 -17 15 -22z m-5213 -34 c4 -12
-202 -224 -758 -780 -420 -420 -770 -764 -777 -764 -53 0 -6 51 739 796 420
420 770 764 777 764 7 0 15 -7 19 -16z m96 -97 c3 -9 -293 -312 -763 -782
-682 -682 -770 -767 -785 -755 -15 12 69 99 752 782 422 422 773 768 779 768
7 0 14 -6 17 -13z m94 -93 c4 -12 -203 -225 -763 -785 -683 -683 -770 -767
-784 -754 -13 14 71 101 755 785 424 424 773 770 778 770 4 0 10 -7 14 -16z
m100 -99 c2 -6 -343 -356 -766 -779 -683 -683 -771 -768 -786 -756 -15 12 69
99 752 782 422 423 774 767 782 766 8 -2 16 -8 18 -13z m93 -90 c11 -13 -99
-127 -759 -787 -716 -716 -773 -770 -788 -755 -15 15 39 72 753 786 423 424
772 771 775 771 4 0 12 -7 19 -15z m97 -101 c4 -12 -203 -225 -763 -785 -683
-683 -770 -767 -784 -754 -13 14 71 101 755 785 424 424 773 770 778 770 4 0
10 -7 14 -16z m100 -99 c2 -6 -343 -356 -766 -779 -683 -683 -771 -768 -786
-756 -15 12 69 99 752 782 422 423 774 767 782 766 8 -2 16 -8 18 -13z m88
-91 c10 -15 -94 -123 -757 -787 -723 -725 -770 -770 -786 -754 -16 16 29 63
753 787 424 424 772 770 774 770 2 0 9 -7 16 -16z m99 -101 c5 -13 -174 -198
-756 -780 -437 -437 -769 -762 -778 -761 -8 2 -16 10 -18 18 -3 16 1516 1540
1535 1540 6 0 14 -8 17 -17z m5793 -2445 c1327 -1327 2413 -2417 2413 -2421 0
-9 -541 -551 -1851 -1853 -550 -547 -678 -669 -696 -666 -15 2 -23 10 -23 23
0 12 -7 19 -20 19 -13 0 -20 7 -20 20 0 13 -7 20 -20 20 -11 0 -19 3 -18 8 4
11 -26 72 -34 72 -5 0 -8 9 -8 20 0 17 -7 20 -40 20 -42 0 -49 7 -27 29 6 7 8
12 2 11 -22 -5 -55 0 -53 8 6 22 -15 71 -33 75 -13 4 -17 10 -13 22 5 11 2 16
-7 15 -29 -4 -37 1 -32 20 4 16 0 20 -21 20 -18 0 -26 5 -27 18 0 14 -2 14 -9
-3 -7 -16 -9 -13 -15 23 -6 32 -12 42 -26 42 -13 0 -19 7 -19 21 0 15 -5 20
-22 17 -19 -2 -23 1 -21 20 2 16 -2 22 -18 22 -59 0 -12 52 641 708 360 361
788 791 950 955 l295 297 -1820 1820 c-1001 1001 -1823 1819 -1827 1818 -4 -2
-664 -658 -1465 -1459 -802 -801 -1485 -1480 -1517 -1508 -38 -33 -62 -47 -67
-40 -5 8 -8 8 -14 -1 -4 -7 106 -125 301 -320 l307 -309 -368 -373 c-396 -401
-2383 -2381 -2394 -2386 -3 -1 -627 619 -1386 1378 l-1380 1380 1380 1380
c759 759 1383 1379 1387 1378 4 -2 378 -372 830 -822 453 -450 830 -825 839
-833 12 -10 19 -11 24 -4 3 6 -1 14 -10 17 -8 4 -14 14 -13 23 2 10 -3 15 -14
13 -12 -2 -15 3 -12 20 3 17 2 19 -3 6 -5 -11 -13 -14 -22 -9 -11 7 -11 10 0
16 9 6 8 10 -7 16 -16 6 285 311 1791 1818 995 996 1812 1811 1815 1811 3 0
1091 -1086 2417 -2412z m-5690 2347 c2 -6 -343 -356 -766 -779 -683 -683 -771
-768 -786 -756 -15 12 69 99 752 782 422 423 774 767 782 766 8 -2 16 -8 18
-13z m90 -91 c4 -12 -203 -225 -763 -785 -683 -683 -770 -767 -784 -754 -13
14 71 101 755 785 424 424 773 770 778 770 4 0 10 -7 14 -16z m18948 -20 c19
-8 45 -55 45 -83 0 -11 -12 -33 -26 -50 -35 -42 -84 -43 -125 -2 -16 16 -29
39 -29 51 0 26 25 77 42 83 19 8 74 8 93 1z m-18861 -70 c9 -3 16 -10 16 -15
0 -13 -1526 -1539 -1539 -1539 -52 0 -1 55 740 796 420 420 765 764 766 764 1
0 8 -3 17 -6z m-651 -886 c-685 -685 -773 -770 -788 -758 -15 12 69 99 757
787 687 687 774 771 788 758 13 -14 -71 -101 -757 -787z m92 -98 c-684 -684
-771 -768 -785 -755 -13 14 71 101 755 785 684 684 771 768 785 755 13 -14
-71 -101 -755 -785z m14969 731 c4 -5 3 -17 0 -26 -6 -15 -8 -14 -25 1 -15 14
-17 19 -7 26 17 10 26 10 32 -1z m-57 -40 c0 -11 -7 -17 -14 -14 -9 4 -9 8 0
19 16 17 16 17 14 -5z m99 -3 c10 -12 14 -18 8 -15 -8 5 -11 -4 -10 -25 1 -18
8 -34 16 -36 13 -5 13 -3 0 13 -14 17 -13 18 4 12 14 -6 17 -4 12 8 -8 22 -4
19 35 -22 18 -20 30 -34 24 -31 -5 3 -18 -3 -27 -14 -15 -15 -15 -18 -3 -18
17 0 18 -2 9 -24 -7 -17 -54 -22 -54 -6 0 6 -7 10 -15 10 -23 0 -18 -15 10
-30 21 -11 29 -11 60 5 31 17 33 21 20 35 -19 21 -19 25 4 27 10 1 34 -15 52
-35 19 -20 25 -30 15 -22 -18 14 -19 14 -7 -7 8 -16 9 -29 2 -41 -8 -15 -5
-18 12 -19 12 0 16 1 10 4 -7 3 -13 9 -13 15 0 6 7 7 16 4 12 -5 15 -2 10 11
-4 10 24 -13 63 -51 39 -38 67 -74 64 -80 -3 -6 -2 -8 2 -3 11 10 86 -63 78
-76 -3 -6 -2 -7 4 -4 11 7 86 -66 78 -76 -3 -4 -2 -5 2 -2 11 8 73 -57 66 -69
-3 -6 -2 -7 2 -3 12 10 326 -303 318 -317 -3 -6 -2 -7 2 -3 10 9 806 -782 800
-794 -3 -4 2 -12 10 -19 8 -7 15 -9 15 -5 0 5 9 0 20 -10 11 -10 17 -22 13
-28 -3 -5 -1 -7 5 -3 10 6 27 -10 27 -26 0 -5 3 -7 6 -5 12 4 49 -35 42 -46
-3 -5 -1 -7 4 -4 6 4 19 -3 29 -16 19 -21 19 -21 -1 -7 -19 14 -19 14 -6 -3 8
-9 16 -15 19 -12 9 9 42 -27 35 -39 -3 -6 -3 -8 2 -4 11 11 36 -12 28 -25 -3
-5 -2 -7 4 -4 9 6 82 -60 83 -75 0 -5 3 -8 8 -8 10 -1 151 -142 149 -149 -1
-3 1 -6 4 -6 15 0 48 -38 42 -48 -3 -5 -1 -7 4 -4 6 4 19 -3 29 -16 19 -21 19
-21 -1 -7 -19 14 -19 14 -6 -3 8 -9 16 -15 19 -12 9 9 42 -27 35 -38 -3 -5 -1
-7 4 -4 6 4 19 -3 29 -16 19 -21 19 -21 -1 -7 -18 14 -19 14 -6 -2 7 -10 17
-16 21 -13 9 6 42 -29 35 -38 -3 -4 -2 -5 2 -2 10 8 83 -66 77 -77 -3 -5 0 -7
7 -6 7 2 13 -3 14 -9 0 -7 3 -12 7 -10 12 4 77 -66 71 -77 -3 -6 -2 -8 2 -3
11 9 66 -43 59 -55 -3 -5 0 -7 8 -6 7 2 12 -4 10 -12 -2 -8 0 -12 4 -7 11 10
85 -64 77 -77 -3 -6 -2 -8 2 -3 12 10 86 -63 78 -77 -3 -6 -2 -8 2 -3 12 10
86 -63 78 -77 -3 -6 -2 -8 2 -3 12 10 86 -63 78 -77 -3 -6 -2 -8 2 -3 11 9 66
-43 59 -55 -3 -5 0 -7 8 -6 7 2 12 -4 10 -12 -2 -8 0 -11 4 -7 10 10 245 -224
237 -236 -3 -6 -2 -7 4 -4 11 7 886 -866 878 -876 -3 -4 -2 -5 2 -2 4 3 58
-45 120 -107 l113 -113 1356 1355 c746 745 1359 1364 1363 1375 6 14 3 24 -8
32 -14 11 -12 13 10 9 21 -3 36 5 70 40 35 36 40 44 26 50 -9 3 -14 10 -11 16
3 5 12 4 20 -3 13 -10 26 -2 78 50 34 34 63 69 63 77 0 14 -8 13 -10 -3 -2
-12 -30 -43 -39 -43 -4 0 4 16 17 36 14 20 22 41 19 46 -4 6 -10 5 -15 -3 -4
-7 -12 -10 -16 -5 -4 5 -3 11 4 13 7 2 9 12 5 21 -3 9 7 4 24 -13 17 -17 29
-33 27 -37 -2 -4 4 -5 14 -2 10 4 101 88 203 188 101 99 173 168 160 153 -22
-25 -22 -27 -5 -21 11 4 25 11 32 16 8 7 13 1 15 -19 2 -19 8 -28 21 -27 12 1
17 -5 17 -22 0 -17 6 -24 19 -24 10 0 21 -9 24 -20 3 -11 12 -20 21 -20 9 0
16 -8 16 -20 0 -13 7 -20 20 -20 13 0 20 -7 20 -20 0 -13 7 -20 20 -20 13 0
20 -7 20 -20 0 -13 7 -20 19 -20 11 0 21 -9 24 -21 4 -15 11 -20 21 -16 12 5
16 0 16 -18 0 -18 5 -25 19 -25 11 0 21 -9 24 -21 4 -15 11 -20 21 -16 12 5
16 0 16 -18 0 -20 5 -25 24 -25 17 0 23 -5 22 -17 0 -11 6 -17 17 -17 12 1 17
-5 17 -22 0 -19 5 -24 24 -24 17 0 23 -5 22 -17 -1 -20 39 -25 64 -8 13 9 13
8 1 -7 -11 -14 -11 -18 -1 -18 8 0 10 -3 7 -6 -4 -4 -13 -1 -21 5 -12 10 -14
9 -11 -6 1 -10 9 -17 16 -15 8 2 7 -4 -5 -17 -15 -16 -22 -18 -33 -10 -11 10
-12 8 -7 -6 5 -13 -30 -54 -143 -168 -141 -143 -170 -178 -164 -202 2 -5 -1
-7 -5 -2 -11 10 -85 -64 -77 -77 3 -6 2 -8 -2 -3 -11 10 -86 -63 -78 -76 3 -6
2 -7 -4 -4 -5 3 -30 -15 -54 -40 -24 -26 -37 -42 -29 -36 13 10 16 8 17 -10 1
-12 -1 -17 -5 -12 -4 6 -16 11 -27 13 -15 2 -424 -401 -1579 -1557 -858 -858
-1565 -1557 -1570 -1554 -6 3 -7 2 -3 -2 10 -11 -143 -166 -156 -158 -6 3 -7
1 -3 -5 3 -6 1 -14 -5 -18 -14 -8 -260 236 -252 250 3 6 2 8 -2 3 -11 -10 -86
63 -78 76 3 6 2 7 -4 4 -9 -6 -162 140 -163 156 0 4 -2 6 -5 5 -10 -6 -324
316 -318 326 3 6 2 7 -2 3 -12 -10 -166 143 -158 157 3 6 2 8 -2 3 -12 -10
-76 53 -68 67 3 6 2 8 -2 3 -11 -9 -86 63 -79 75 3 5 0 7 -8 6 -7 -2 -12 4
-10 12 2 8 0 12 -4 7 -10 -9 -45 23 -38 35 3 4 0 7 -8 6 -7 -2 -12 4 -10 12 2
8 0 12 -4 7 -11 -10 -85 64 -77 77 3 6 2 8 -2 3 -12 -10 -86 63 -78 77 3 6 2
8 -2 3 -12 -10 -86 63 -78 77 3 6 2 8 -2 3 -12 -10 -86 63 -78 77 3 6 2 8 -2
3 -11 -9 -86 63 -79 75 3 5 0 7 -8 6 -7 -2 -12 4 -10 12 2 8 0 12 -4 7 -10 -9
-45 23 -38 35 3 4 0 7 -8 6 -7 -2 -12 3 -11 9 2 7 -3 12 -10 10 -6 -1 -11 5
-9 13 2 8 0 12 -4 7 -10 -9 -45 23 -38 35 3 4 0 7 -8 6 -7 -2 -12 3 -11 9 2 7
-3 12 -10 10 -6 -1 -11 5 -9 13 2 8 0 12 -4 7 -10 -9 -45 23 -38 35 3 4 0 7
-8 6 -7 -2 -12 3 -11 9 2 7 -3 12 -10 10 -6 -1 -11 5 -9 13 2 8 0 12 -4 7 -10
-10 -45 23 -37 36 3 5 1 7 -4 4 -6 -4 -19 3 -29 16 -19 21 -19 21 1 7 19 -14
19 -14 6 3 -8 9 -16 15 -19 12 -9 -9 -42 27 -35 39 3 6 2 8 -2 3 -11 -10 -86
63 -78 76 3 6 1 7 -4 4 -6 -4 -19 3 -29 16 -19 21 -19 21 1 7 19 -14 19 -14 6
3 -8 9 -16 15 -19 12 -9 -9 -42 27 -35 39 3 6 2 8 -2 3 -11 -10 -86 63 -78 76
3 6 1 7 -4 4 -6 -4 -19 3 -29 16 -19 21 -19 21 1 7 18 -14 19 -14 6 2 -7 10
-16 16 -20 13 -4 -2 -43 33 -87 77 -43 45 -70 75 -59 67 18 -13 19 -13 6 3 -7
10 -16 16 -20 13 -4 -2 -43 33 -87 77 -43 45 -70 75 -59 67 18 -13 19 -13 6 3
-7 10 -16 16 -20 13 -4 -2 -43 33 -87 77 -43 45 -70 75 -59 67 19 -13 19 -13
6 4 -8 9 -16 15 -19 12 -8 -8 -42 27 -36 37 3 4 0 7 -8 6 -7 -2 -12 3 -10 10
1 6 -4 11 -10 10 -7 -2 -11 4 -10 12 2 8 0 12 -4 7 -10 -9 -45 23 -38 35 3 4
0 7 -7 6 -7 -2 -13 4 -14 12 -1 8 -6 14 -11 13 -11 -2 -71 55 -76 72 -2 6 -6
9 -9 8 -7 -2 -68 59 -69 70 0 4 -2 6 -5 5 -10 -6 -164 156 -158 166 3 6 2 8
-2 3 -11 -10 -86 63 -78 76 3 6 2 7 -4 4 -9 -6 -72 50 -73 66 0 4 -3 7 -7 7
-16 0 -312 304 -306 314 3 6 2 8 -2 3 -11 -10 -86 63 -78 76 3 6 2 7 -4 4 -9
-6 -82 60 -83 76 0 4 -2 6 -5 5 -8 -5 -154 145 -149 153 2 4 -1 11 -7 15 -8 5
-9 3 -4 -7 5 -8 -12 6 -38 30 -25 24 -43 49 -40 55 3 6 3 8 -1 4 -12 -10 -87
63 -79 76 3 6 3 8 -1 4 -12 -10 -87 63 -79 76 3 6 3 8 -1 4 -10 -8 -77 52 -71
63 3 4 0 11 -6 15 -8 5 -9 3 -4 -7 5 -8 -12 6 -38 30 -25 24 -43 49 -40 54 3
6 2 7 -4 4 -11 -7 -77 56 -68 65 4 3 1 9 -6 14 -8 5 -10 3 -4 -7 5 -8 -51 44
-123 116 -124 122 -146 145 -122 130 17 -11 11 11 -8 28 -10 10 -22 14 -25 10
-13 -12 -55 37 -50 58 5 17 -5 24 -30 20 -4 -1 -3 8 3 19 6 11 16 20 23 20 9
0 9 -3 -1 -9 -10 -6 -10 -10 2 -20 11 -9 15 -9 20 1 3 7 3 2 0 -12 -3 -14 -2
-20 3 -14 4 7 17 14 28 16 18 4 17 6 -7 18 -27 13 -46 40 -28 40 6 0 10 -4 10
-10 0 -5 11 -10 24 -10 14 0 28 5 31 10 14 23 25 7 25 -40 0 -43 -3 -50 -20
-50 -23 0 -26 -13 -6 -29 11 -10 16 -8 21 8 3 12 10 21 14 21 4 0 8 17 8 37 1
21 6 39 12 41 6 2 11 21 11 43 0 32 3 39 20 39 12 0 20 -7 20 -16 0 -14 2 -15
17 -3 15 13 15 14 0 17 -14 3 -17 17 -17 83 l0 79 40 0 40 0 0 40 c0 30 -4 40
-16 40 -14 0 -15 2 -3 17 13 15 14 15 17 0 3 -13 15 -17 53 -17 l49 0 0 -39
c0 -22 -5 -41 -11 -43 -7 -2 -10 -9 -8 -15 3 -8 11 -6 25 6 17 13 22 32 27 94
5 69 4 77 -12 77 -9 0 -22 -12 -28 -27 l-11 -28 -1 28 c-1 18 -6 27 -18 27
-15 0 -15 1 0 18 10 10 17 28 17 40 0 15 6 22 19 22 10 0 21 9 24 20 3 11 12
20 20 20 8 0 17 11 19 25 3 13 2 22 -2 20 -5 -3 -10 15 -12 40 -2 25 1 45 5
45 5 0 5 5 2 10 -11 18 1 11 21 -12z m-138 -38 c-7 -11 -17 -20 -22 -20 -5 0
-1 9 9 20 10 11 20 20 22 20 2 0 -2 -9 -9 -20z m42 -10 c0 -5 -5 -10 -11 -10
-5 0 -7 5 -4 10 3 6 8 10 11 10 2 0 4 -4 4 -10z m-76 -42 c-3 -4 -11 -5 -19
-2 -11 5 -12 9 -2 19 12 13 31 -1 21 -17z m4141 -13 c18 -17 25 -35 25 -62 -1
-45 -16 -68 -54 -83 -36 -13 -72 -3 -96 27 -46 59 -8 143 65 143 25 0 44 -8
60 -25z m910 0 c53 -53 15 -149 -58 -149 -52 0 -87 35 -87 86 0 52 35 88 85
88 25 0 44 -8 60 -25z m-5097 -15 c-7 -11 -17 -20 -22 -20 -5 0 -1 9 9 20 10
11 20 20 22 20 2 0 -2 -9 -9 -20z m42 -10 c0 -5 -5 -10 -11 -10 -5 0 -7 5 -4
10 3 6 8 10 11 10 2 0 4 -4 4 -10z m3698 -436 c24 -28 29 -79 9 -105 -63 -83
-189 -21 -156 78 21 64 101 79 147 27z m905 8 c10 -10 20 -35 24 -55 5 -31 1
-40 -25 -67 -41 -40 -83 -41 -123 -1 -31 31 -35 53 -19 95 20 53 102 69 143
28z m886 13 c40 -20 57 -66 41 -105 -27 -65 -92 -79 -141 -31 -33 33 -38 74
-13 109 28 40 69 50 113 27z m-5869 -18 c0 -7 -9 -13 -19 -13 -15 0 -17 3 -9
13 6 7 14 13 19 13 5 0 9 -6 9 -13z m74 -38 c-21 -22 -31 -26 -41 -18 -7 6
-13 16 -13 22 0 8 4 7 11 0 9 -9 18 -4 37 19 16 18 28 26 30 19 2 -7 -8 -26
-24 -42z m-23 -56 c13 -16 12 -17 -3 -4 -17 13 -22 21 -14 21 2 0 10 -8 17
-17z m3567 -356 c36 -38 38 -78 7 -115 -22 -26 -34 -32 -66 -32 -73 0 -109 63
-74 130 17 33 27 38 76 39 25 1 42 -6 57 -22z m909 1 c31 -29 32 -92 1 -125
-51 -54 -148 -14 -148 62 0 75 92 114 147 63z m908 -3 c78 -77 -32 -192 -119
-124 -21 16 -26 29 -26 64 0 35 5 48 26 64 37 29 89 27 119 -4z m890 19 c26
-10 48 -62 40 -100 -18 -99 -169 -79 -169 23 0 60 67 100 129 77z m1276 -41
c13 -16 12 -17 -3 -4 -17 13 -22 21 -14 21 2 0 10 -8 17 -17z m89 -94 c0 -5
-5 -9 -12 -9 -6 0 -8 3 -5 7 4 3 1 13 -6 22 -11 14 -10 14 6 2 9 -7 17 -17 17
-22z m151 -146 c11 -15 11 -16 -1 -6 -11 10 -17 10 -29 0 -14 -11 -14 -10 -2
6 7 9 15 17 16 17 1 0 9 -8 16 -17z m-261 -42 c0 -6 -4 -13 -10 -16 -5 -3 -10
1 -10 9 0 9 5 16 10 16 6 0 10 -4 10 -9z m160 -36 c0 -8 -7 -15 -16 -15 -14 0
-14 3 -4 15 7 8 14 15 16 15 2 0 4 -7 4 -15z m100 5 c0 -5 -2 -10 -4 -10 -3 0
-8 5 -11 10 -3 6 -1 10 4 10 6 0 11 -4 11 -10z m-429 -37 c13 -16 12 -17 -3
-4 -17 13 -22 21 -14 21 2 0 10 -8 17 -17z m63 11 c9 -3 16 -12 16 -20 0 -8 5
-14 11 -14 5 0 7 -5 3 -12 -6 -9 -9 -9 -12 0 -2 7 -8 10 -13 6 -5 -3 -9 4 -9
15 0 10 -6 22 -12 24 -7 3 -10 6 -6 6 3 1 13 -2 22 -5z m376 -11 c10 9 12 9 8
-3 -3 -8 -11 -15 -19 -15 -8 0 -17 -4 -21 -10 -5 -6 -11 -5 -17 5 -14 20 -3
32 18 20 12 -6 22 -5 31 3z m-190 -48 c0 -8 -7 -15 -16 -15 -14 0 -14 3 -4 15
7 8 14 15 16 15 2 0 4 -7 4 -15z m160 -40 c-36 -36 -66 -49 -36 -16 16 17 16
20 1 35 -19 18 -40 22 -29 4 4 -7 3 -8 -5 -4 -6 4 -9 12 -6 17 11 16 44 9 55
-12 7 -11 15 -18 18 -14 7 6 8 11 11 37 1 9 4 9 13 0 9 -9 4 -20 -22 -47z
m-4671 20 c33 -16 41 -33 41 -80 0 -60 -63 -99 -121 -75 -35 15 -49 37 -49 80
0 75 61 110 129 75z m922 -14 c20 -20 29 -39 29 -61 0 -37 -47 -90 -80 -90
-64 0 -113 65 -90 120 27 65 92 79 141 31z m910 0 c57 -58 21 -146 -60 -146
-56 0 -86 30 -86 86 0 81 88 117 146 60z m883 19 c14 -5 32 -23 41 -40 48 -92
-81 -174 -145 -93 -29 37 -26 79 9 114 31 31 53 35 95 19z m909 -2 c33 -17 46
-39 47 -79 0 -42 -30 -76 -76 -85 -24 -4 -37 0 -62 21 -45 38 -45 92 -1 129
33 28 59 32 92 14z m719 5 c-6 -2 -9 -10 -6 -15 4 -7 2 -8 -5 -4 -13 9 -5 26
12 25 9 0 8 -2 -1 -6z m280 -35 c-7 -7 -12 -8 -12 -2 0 14 12 26 19 19 2 -3
-1 -11 -7 -17z m-76 -46 c1 -7 2 -16 3 -22 0 -5 5 -10 11 -10 5 0 7 8 3 18 -5
14 -3 15 7 5 10 -10 17 -10 29 -1 9 6 -2 -7 -24 -29 -22 -23 -44 -40 -49 -39
-18 2 -47 37 -40 47 4 6 0 16 -7 21 -12 8 -11 9 1 5 8 -2 15 -10 15 -18 0 -20
17 -37 34 -34 18 2 28 25 11 25 -6 0 -8 5 -5 10 3 6 1 10 -4 10 -6 0 -11 7
-11 16 0 18 24 14 26 -4z m-125 -19 c13 -16 12 -17 -3 -4 -17 13 -22 21 -14
21 2 0 10 -8 17 -17z m-25291 -953 c0 -3 -190 -4 -423 -4 l-422 2 -3 428 -2
429 425 -425 c234 -234 425 -427 425 -430z m15495 -28 l680 -682 -683 0 -682
0 0 687 c0 377 1 684 3 682 1 -3 308 -312 682 -687z m5814 627 c93 -33 64
-169 -35 -169 -89 0 -114 122 -34 162 19 10 35 18 36 18 1 0 15 -5 33 -11z
m939 -22 c31 -29 30 -90 -3 -122 -51 -52 -145 -16 -145 55 0 43 16 69 53 85
37 16 63 11 95 -18z m912 -5 c46 -58 8 -142 -65 -142 -50 0 -85 36 -85 88 0
81 100 118 150 54z m899 11 c12 -10 24 -35 28 -55 5 -32 1 -41 -25 -68 -48
-47 -107 -38 -137 21 -18 34 -13 63 18 97 25 27 85 30 116 5z m2261 -120 c0
-3 -7 -3 -15 1 -10 3 -15 -1 -15 -11 0 -9 -3 -14 -6 -10 -12 12 5 37 21 31 8
-3 15 -8 15 -11z m-100 -7 c0 -2 -8 -10 -17 -17 -16 -13 -17 -12 -4 4 13 16
21 21 21 13z m31 -39 c-8 -8 -14 -8 -23 2 -11 10 -10 11 5 6 12 -5 17 -2 18
11 0 12 2 14 6 6 3 -8 0 -19 -6 -25z m110 6 c13 -16 12 -17 -3 -4 -17 13 -22
21 -14 21 2 0 10 -8 17 -17z m-211 -36 c0 -2 -10 -12 -22 -23 l-23 -19 19 23
c18 21 26 27 26 19z m24 -47 c-5 -5 -9 4 -10 23 -1 30 -1 30 9 9 6 -14 7 -26
1 -32z m186 19 c0 -6 -4 -7 -10 -4 -5 3 -10 11 -10 16 0 6 5 7 10 4 6 -3 10
-11 10 -16z m-266 -65 c7 -26 -7 -54 -27 -54 -6 0 -3 6 7 13 13 10 16 20 11
36 -7 22 -7 22 -28 4 l-22 -18 19 23 c25 29 32 28 40 -4z m186 1 c0 -8 -4 -15
-10 -15 -5 0 -10 7 -10 15 0 8 5 15 10 15 6 0 10 -7 10 -15z m120 5 c0 -5 -5
-10 -11 -10 -5 0 -7 5 -4 10 3 6 8 10 11 10 2 0 4 -4 4 -10z m96 -30 c16 0 17
-2 4 -11 -12 -9 -10 -10 8 -6 23 5 23 5 6 -14 -13 -14 -20 -16 -30 -8 -8 6
-11 15 -9 20 3 5 -3 14 -15 21 -11 7 -20 17 -20 22 0 5 8 2 18 -7 10 -10 27
-17 38 -17z m-356 -66 c0 -16 -9 -18 -29 -5 -7 5 -11 14 -7 19 9 15 36 4 36
-14z m422 1 c8 3 23 -5 34 -17 l19 -23 -22 19 c-20 17 -23 17 -38 2 -9 -9 -22
-16 -28 -16 -7 0 -6 4 2 9 13 8 13 12 0 28 -13 16 -12 17 2 5 9 -7 23 -10 31
-7z m-118 -40 c-8 -21 -31 -25 -44 -9 -10 11 -9 14 4 14 9 0 16 7 16 16 0 13
3 14 14 4 8 -6 12 -18 10 -25z m-356 4 c-4 -18 42 -18 52 0 8 14 9 14 10 -1 0
-9 -5 -20 -11 -23 -6 -4 -8 -14 -5 -24 4 -9 -2 -7 -14 8 -11 13 -20 20 -20 16
0 -4 -7 -2 -15 5 -8 7 -12 16 -9 21 7 13 14 11 12 -2z m476 -24 c-8 -19 6 -19
34 0 20 14 21 14 16 0 -3 -8 -10 -15 -16 -15 -5 0 -7 -4 -4 -8 2 -4 -7 -9 -20
-10 -28 -2 -45 25 -23 39 19 12 19 11 13 -6z m-4770 -21 c54 -55 19 -145 -57
-147 -81 -2 -124 98 -63 149 37 33 86 32 120 -2z m907 -3 c46 -46 34 -112 -25
-136 -61 -26 -126 18 -126 85 0 33 53 80 90 80 22 0 41 -9 61 -29z m890 19
c27 -15 51 -67 43 -93 -17 -57 -68 -84 -119 -63 -51 22 -68 67 -44 120 19 40
78 58 120 36z m2585 -4 c6 -16 -14 -61 -24 -52 -3 4 0 12 6 18 13 13 16 29 5
27 -17 -3 -24 2 -18 11 9 14 25 12 31 -4z m467 -23 c-17 -14 -17 -14 2 -8 15
5 17 3 9 -5 -7 -7 -20 -10 -30 -8 -16 3 -16 4 -1 19 9 9 13 20 9 23 -3 4 1 4
11 0 17 -6 17 -7 0 -21z m-279 -28 c-8 -21 -31 -25 -44 -9 -10 11 -9 14 4 14
9 0 16 7 16 16 0 13 3 14 14 4 8 -6 12 -18 10 -25z m-134 -44 c1 10 4 8 11 -4
5 -9 8 -21 4 -26 -3 -5 -1 -12 5 -16 5 -3 10 1 10 10 0 9 5 13 10 10 8 -5 8
-11 1 -19 -6 -7 -7 -17 -3 -22 4 -5 -3 -1 -15 10 -12 10 -19 24 -16 32 3 8 2
14 -3 13 -20 -3 -34 2 -34 12 0 8 5 8 15 -1 12 -10 15 -10 15 1z m70 -1 c0 -5
-4 -10 -10 -10 -5 0 -10 5 -10 10 0 6 5 10 10 10 6 0 10 -4 10 -10z m40 -82
c0 -10 -36 7 -45 22 -4 6 5 5 19 -2 14 -6 26 -15 26 -20z m270 23 c0 -5 -7
-14 -15 -21 -13 -10 -15 -9 -15 9 0 12 6 21 15 21 8 0 15 -4 15 -9z m-290 -51
c0 -5 -2 -10 -4 -10 -3 0 -8 5 -11 10 -3 6 -1 10 4 10 6 0 11 -4 11 -10z m85
-10 c3 -6 -1 -7 -9 -4 -9 3 -16 1 -16 -5 0 -6 -5 -11 -11 -11 -8 0 -8 5 1 15
14 17 26 19 35 5z m120 0 c-3 -5 -13 -10 -21 -10 -8 0 -14 5 -14 10 0 6 9 10
21 10 11 0 17 -4 14 -10z m75 4 c0 -8 -19 -13 -24 -6 -3 5 1 9 9 9 8 0 15 -2
15 -3z m-50 -18 c0 -3 -4 -8 -10 -11 -5 -3 -10 -1 -10 4 0 6 5 11 10 11 6 0
10 -2 10 -4z m-79 -35 c9 -20 19 -28 32 -25 15 3 17 0 7 -11 -9 -11 -16 -12
-31 -2 -10 6 -19 17 -19 24 0 7 -4 13 -9 13 -5 0 -11 7 -15 15 -11 28 22 15
35 -14z m-74 5 c-3 -7 2 -24 10 -37 16 -24 16 -24 -3 -4 -10 11 -26 26 -34 34
-13 12 -13 13 3 8 9 -4 17 -2 17 3 0 6 3 10 6 10 3 0 4 -6 1 -14z m64 -59 c-6
-6 -11 -16 -11 -21 0 -6 5 -5 12 2 7 7 16 12 22 12 5 0 1 -6 -10 -14 -22 -17
-35 -8 -39 28 -3 23 -1 25 17 15 15 -8 17 -14 9 -22z m79 19 c0 -2 -8 -10 -17
-17 -16 -13 -17 -12 -4 4 13 16 21 21 21 13z m-4301 -162 c58 -49 34 -138 -40
-150 -28 -5 -41 -1 -67 21 -43 36 -44 84 -3 126 36 36 70 37 110 3z m919 -10
c33 -38 30 -86 -10 -119 -60 -50 -138 -14 -138 64 0 81 93 116 148 55z
m-15978 -759 l425 -425 -428 0 -427 0 0 425 c0 234 1 425 3 425 1 0 193 -191
427 -425z m15511 322 c44 -34 49 -83 13 -126 -20 -25 -34 -31 -64 -31 -30 0
-44 6 -64 31 -14 17 -26 40 -26 53 0 21 24 64 44 78 17 12 79 9 97 -5z m-4090
-2099 c841 -842 1529 -1535 1529 -1538 0 -4 -11 -17 -25 -30 l-26 -24 -1536
1537 -1537 1536 24 26 c13 14 28 25 33 25 5 0 698 -689 1538 -1532z m-191
-193 l1534 -1534 -29 -31 -29 -31 -1538 1538 -1537 1537 26 28 c15 16 29 28
32 28 3 0 697 -691 1541 -1535z m-191 -191 l1532 -1537 -28 -29 -27 -29 -1538
1538 -1537 1537 26 28 c15 16 30 28 33 28 4 0 696 -691 1539 -1536z m1311
-1759 l-30 -30 -1537 1537 -1537 1537 29 31 29 31 1538 -1538 1538 -1538 -30
-30z m-1698 1373 c840 -843 1528 -1536 1528 -1539 0 -3 -11 -16 -25 -29 l-26
-24 -1536 1537 -1537 1536 24 26 c13 14 28 25 34 25 6 0 698 -689 1538 -1532z
m-192 -193 l1534 -1534 -29 -31 -29 -31 -1538 1538 -1537 1537 26 28 c15 16
29 28 32 28 3 0 697 -691 1541 -1535z m-191 -191 l1533 -1536 -28 -29 -28 -30
-1538 1538 -1537 1537 26 28 c15 16 30 28 33 28 3 0 696 -691 1539 -1536z
m471 -804 l0 55 1025 -1027 c564 -565 1025 -1030 1025 -1033 0 -3 -461 -5
-1025 -5 l-1025 0 0 151 0 150 -1517 1514 -1518 1513 30 31 29 32 1481 -1481
c814 -814 1483 -1480 1488 -1480 4 0 7 57 7 127 l0 128 -1420 1420 -1421 1421
31 29 31 29 1389 -1389 1390 -1390 0 131 0 131 -1320 1318 c-726 726 -1320
1324 -1320 1330 0 7 11 22 25 35 l26 24 1294 -1294 1295 -1295 0 135 0 135
-1227 1227 -1228 1228 30 30 31 30 1193 -1195 c657 -657 1195 -1195 1197
-1195 2 0 4 57 4 127 l0 128 -1132 1132 -1132 1132 29 31 29 31 1103 -1103
1103 -1103 0 55z m10170 2086 c0 -3 -4 -8 -10 -11 -5 -3 -10 -1 -10 4 0 6 5
11 10 11 6 0 10 -2 10 -4z m-7475 -23 c-2 -10 -4 -19 -4 -21 -1 -2 -6 0 -11 3
-8 5 -7 11 1 21 15 18 18 18 14 -3z m30 -51 c-8 -9 -21 -26 -29 -37 -12 -15
-15 -16 -16 -5 0 18 42 70 52 64 4 -3 1 -12 -7 -22z m-106 -55 c17 4 22 3 17
-6 -4 -6 0 -24 11 -39 10 -15 18 -35 19 -45 1 -16 0 -16 -17 -1 -10 9 -16 21
-13 28 6 15 -27 46 -52 50 -9 2 -18 11 -20 20 -2 16 -1 16 15 2 10 -9 26 -13
40 -9z m195 -17 c-6 -5 -24 21 -24 34 0 6 6 1 14 -10 8 -10 12 -21 10 -24z
m46 -37 c0 -19 -27 -46 -39 -38 -10 6 -36 -33 -28 -41 10 -11 66 29 71 52 7
25 7 25 57 -25 28 -28 53 -51 55 -51 2 0 24 -20 50 -45 25 -25 44 -45 41 -45
-3 0 9 -15 26 -33 18 -18 35 -32 38 -30 8 3 98 -94 93 -101 -2 -3 -1 -4 3 -1
4 3 134 -122 290 -277 l283 -283 -67 -67 -67 -68 -33 32 c-18 17 -29 36 -26
42 3 6 2 8 -2 3 -12 -10 -86 63 -78 77 3 6 2 8 -2 3 -12 -10 -86 63 -78 77 3
6 2 8 -2 3 -11 -10 -86 63 -78 76 3 6 2 7 -4 4 -13 -8 -66 47 -56 57 5 4 1 6
-7 4 -8 -2 -14 3 -12 10 1 8 -1 11 -6 8 -9 -5 -71 52 -72 67 0 4 -3 7 -7 7
-11 1 -72 62 -70 69 1 3 -2 7 -6 8 -15 2 -66 56 -62 63 3 4 -2 13 -10 20 -8 7
-15 9 -15 4 0 -4 -20 12 -45 36 -25 25 -43 51 -40 58 3 7 0 10 -6 7 -12 -8
-51 24 -44 35 3 4 -3 14 -13 21 -16 13 -16 12 -3 -6 8 -11 -12 6 -44 37 -53
51 -57 58 -45 75 8 10 10 15 5 10 -4 -4 -17 0 -27 10 -10 9 -21 13 -25 10 -10
-11 -42 23 -37 38 3 7 1 16 -5 20 -14 8 -14 25 -1 25 6 0 10 -6 10 -14 0 -20
39 -65 40 -46 0 9 -7 26 -16 38 -9 13 -13 26 -10 29 3 4 6 1 6 -6 0 -8 7 -7
24 4 13 9 28 15 32 14 25 -4 36 2 30 17 -5 14 -4 15 8 5 11 -10 14 -9 12 1 -1
7 -6 20 -11 28 -8 13 -7 13 8 1 9 -7 17 -20 17 -28z m-104 14 c8 3 14 0 14 -7
0 -15 -33 -9 -36 8 -1 7 0 8 2 3 3 -6 12 -7 20 -4z m3779 -697 l420 -420 -423
0 -422 0 0 420 c0 231 1 420 3 420 1 0 191 -189 422 -420z m-6655 -3135 l-30
-30 -1537 1537 -1537 1537 29 31 29 31 1538 -1538 1538 -1538 -30 -30z m-1700
1370 l1534 -1534 -24 -26 c-13 -14 -28 -25 -34 -25 -13 0 -3066 3051 -3066
3064 0 11 40 56 49 56 3 0 697 -691 1541 -1535z m-190 -190 l1534 -1534 -29
-31 -29 -31 -1538 1538 -1537 1537 26 28 c15 16 29 28 32 28 3 0 697 -691
1541 -1535z m1311 -1759 l-30 -29 -1538 1536 -1538 1536 30 31 29 31 1538
-1538 1538 -1538 -29 -29z m-8091 3080 c0 -2 -8 -10 -17 -17 -16 -13 -17 -12
-4 4 13 16 21 21 21 13z m7900 -3271 l-30 -30 -1537 1537 -1537 1537 29 31 29
31 1538 -1538 1538 -1538 -30 -30z m-3500 1910 l0 -165 155 0 155 0 0 -75 0
-75 -155 0 -155 0 -2 -162 -3 -163 -80 0 -80 0 -3 163 -2 162 -160 0 -160 0 0
75 0 75 160 0 160 0 0 165 0 165 85 0 85 0 0 -165z m10089 -1572 c-4 -27 3
-43 19 -43 22 0 62 -32 62 -48 0 -6 6 -9 13 -6 16 6 39 -39 31 -61 -4 -10 0
-15 15 -15 13 0 21 -6 21 -17 0 -15 1 -15 13 1 12 16 14 14 27 -23 10 -32 16
-39 27 -30 10 9 13 6 13 -17 0 -25 1 -26 13 -10 12 16 14 14 27 -24 13 -38 15
-40 27 -24 12 16 13 15 13 -9 0 -17 11 -39 30 -57 27 -26 31 -27 39 -12 8 14
10 10 11 -17 0 -31 1 -33 13 -17 12 16 14 14 27 -24 13 -38 15 -40 27 -24 12
16 13 14 13 -17 0 -23 3 -30 9 -20 7 11 12 8 26 -12 9 -14 14 -31 10 -37 -3
-5 -1 -10 5 -10 6 0 13 7 17 16 5 15 7 15 15 0 5 -9 15 -14 21 -10 7 4 -349
-355 -790 -797 l-803 -804 -292 293 -292 292 794 795 c437 437 796 795 797
795 2 0 2 -3 2 -7z m-1753 -1765 c4 -7 4 -10 -1 -6 -4 4 -15 2 -24 -5 -14 -11
-14 -10 -2 6 16 20 18 21 27 5z m-11 -60 c5 4 5 1 1 -6 -6 -10 -11 -10 -22 -1
-8 6 -14 14 -14 16 0 3 6 0 13 -6 8 -6 18 -7 22 -3z m-65 -1 c0 -2 -10 -12
-22 -23 l-23 -19 19 23 c18 21 26 27 26 19z m-97 -160 c4 3 7 4 7 1 0 -3 -8
-12 -17 -19 -10 -7 -15 -9 -11 -5 4 5 2 16 -5 25 -10 14 -10 14 4 4 9 -7 19
-10 22 -6z m-73 -82 c0 -2 -6 -8 -13 -14 -10 -8 -14 -7 -14 2 0 8 6 14 14 14
7 0 13 -1 13 -2z m-87 -78 c4 3 7 4 7 1 0 -3 -8 -12 -17 -19 -10 -7 -15 -9
-11 -5 4 5 2 16 -5 25 -10 14 -10 14 4 4 9 -7 19 -10 22 -6z m908 -182 c17 11
9 -2 -13 -21 -13 -12 -18 -13 -12 -4 4 8 8 24 7 35 -1 16 -1 17 3 2 3 -9 10
-15 15 -12z m-74 -12 c-4 -3 1 -16 10 -27 18 -21 18 -21 -3 -3 -11 9 -25 14
-29 10 -5 -5 -3 0 4 10 7 9 16 17 19 17 3 0 2 -3 -1 -7z m3 -66 c0 -2 -10 -12
-22 -23 l-23 -19 19 23 c18 21 26 27 26 19z m-83 -14 c-4 -3 -1 -13 6 -22 10
-14 10 -14 -4 -4 -9 7 -20 9 -25 5 -4 -4 -2 1 5 11 7 9 16 17 19 17 3 0 2 -3
-1 -7z m3 -69 c0 -8 -19 -13 -24 -6 -3 5 1 9 9 9 8 0 15 -2 15 -3z m-83 -11
c-4 -3 1 -16 10 -27 18 -21 18 -21 -3 -3 -11 9 -25 14 -29 10 -5 -5 -3 0 4 10
7 9 16 17 19 17 3 0 2 -3 -1 -7z m3 -66 c0 -2 -10 -12 -22 -23 l-23 -19 19 23
c18 21 26 27 26 19z m-83 -14 c-4 -3 -1 -13 6 -22 11 -14 10 -14 -5 -2 -16 12
-16 31 -1 31 4 0 3 -3 0 -7z m-76 -100 c13 -16 12 -17 -3 -4 -17 13 -22 21
-14 21 2 0 10 -8 17 -17z m-1 -46 c0 -2 -10 -12 -22 -23 l-23 -19 19 23 c18
21 26 27 26 19z m-1795 -162 c59 -58 0 -161 -80 -141 -64 16 -88 96 -43 143
30 32 90 32 123 -2z m1635 1 c0 -2 -8 -10 -17 -17 -16 -13 -17 -12 -4 4 13 16
21 21 21 13z m-160 -159 c0 -2 -10 -12 -22 -23 l-23 -19 19 23 c18 21 26 27
26 19z m-159 -114 c13 -16 12 -17 -3 -4 -17 13 -22 21 -14 21 2 0 10 -8 17
-17z m-881 -153 c72 -30 65 -151 -11 -175 -79 -25 -153 60 -115 133 9 17 25
33 36 37 11 4 18 10 15 14 -6 11 41 5 75 -9z m721 -7 c13 -16 12 -17 -3 -4
-17 13 -22 21 -14 21 2 0 10 -8 17 -17z m-1615 -17 c59 -50 22 -146 -56 -146
-78 0 -115 96 -56 146 15 13 40 24 56 24 16 0 41 -11 56 -24z m-448 -458 c29
-28 30 -83 0 -115 -47 -50 -148 -13 -148 54 0 80 88 116 148 61z m916 1 c15
-17 26 -43 26 -59 0 -16 -11 -42 -26 -59 -47 -56 -142 -36 -160 34 -16 63 26
115 92 115 35 0 47 -5 68 -31z m870 21 c32 -12 60 -64 52 -96 -16 -63 -103
-88 -146 -42 -46 49 -9 146 57 148 6 0 23 -4 37 -10z m-1334 -458 c15 -12 25
-35 30 -65 6 -40 4 -49 -16 -71 -42 -45 -114 -42 -153 6 -14 16 -16 31 -11 66
9 56 37 82 90 82 22 0 47 -8 60 -18z m-906 -23 c34 -40 33 -74 -3 -110 -56
-56 -141 -21 -141 58 0 77 94 111 144 52z m1813 9 c52 -49 14 -148 -57 -148
-37 0 -90 47 -90 80 0 26 18 61 39 77 26 20 82 16 108 -9z m908 -3 c47 -46 24
-125 -42 -141 -53 -14 -113 46 -99 99 16 67 94 90 141 42z m3631 -336 c4 -7
-306 -324 -762 -780 -614 -614 -771 -766 -782 -757 -11 9 140 165 755 780 422
422 771 768 775 768 4 0 10 -5 14 -11z m-5921 -93 c96 -40 63 -176 -43 -176
-92 0 -122 133 -39 174 39 19 40 19 82 2z m5256 -780 c-613 -613 -773 -768
-783 -758 -18 18 1520 1556 1540 1540 11 -9 -141 -166 -757 -782z m-6162 769
c32 -16 41 -33 41 -78 0 -69 -91 -105 -137 -54 -35 37 -37 64 -11 102 31 46
60 55 107 30z m1832 -14 c37 -38 39 -82 4 -116 -52 -53 -145 -16 -145 57 1 80
85 115 141 59z m903 7 c40 -35 43 -78 11 -116 -51 -60 -145 -30 -145 47 0 78
78 118 134 69z m906 2 c31 -31 42 -67 29 -93 -23 -43 -42 -57 -79 -57 -49 0
-84 36 -84 87 0 68 88 109 134 63z m3378 -92 c4 -19 -1534 -1543 -1543 -1528
-8 13 1513 1552 1529 1547 6 -2 12 -10 14 -19z m99 -94 c2 -5 -343 -355 -767
-779 -616 -616 -770 -765 -776 -751 -5 14 151 175 757 782 420 420 768 763
773 761 6 -2 11 -7 13 -13z m-666 -868 c-616 -616 -773 -768 -783 -758 -18 18
1520 1556 1540 1540 11 -9 -140 -165 -757 -782z m856 678 c2 -5 -343 -355
-767 -778 -617 -617 -770 -766 -776 -752 -5 14 150 175 757 782 420 420 768
763 773 761 6 -2 11 -7 13 -13z m-6830 -78 c22 -19 28 -32 28 -64 0 -59 -34
-92 -92 -92 -59 0 -93 33 -93 88 0 82 93 122 157 68z m871 13 c36 -12 67 -68
56 -102 -24 -79 -128 -88 -159 -13 -25 58 -3 97 71 126 1 0 15 -5 32 -11z
m940 -22 c44 -41 20 -127 -41 -142 -32 -8 -73 10 -93 40 -26 39 -10 95 34 116
38 19 67 15 100 -14z m912 -5 c27 -33 25 -75 -4 -108 -70 -82 -192 24 -126
109 33 42 97 42 130 -1z m4207 -8 c5 -16 -1529 -1532 -1545 -1527 -17 6 1507
1545 1526 1541 9 -2 17 -8 19 -14z m-666 -868 c-609 -608 -774 -767 -783 -758
-18 18 1520 1556 1540 1540 11 -9 -140 -165 -757 -782z m855 683 c4 -7 -306
-324 -762 -780 -614 -614 -771 -766 -782 -757 -11 9 140 165 755 780 422 422
771 768 775 768 4 0 10 -5 14 -11z m98 -97 c3 -5 -341 -354 -764 -777 -584
-584 -772 -767 -781 -758 -9 9 173 197 752 777 420 421 769 766 776 766 6 0
14 -4 17 -8z m94 -104 c4 -19 -1534 -1543 -1543 -1528 -8 13 1513 1552 1529
1547 6 -2 12 -10 14 -19z m-6863 -53 c53 -52 16 -145 -57 -145 -37 1 -59 14
-76 47 -46 85 65 167 133 98z m910 0 c34 -33 34 -84 -1 -119 -55 -55 -144 -18
-144 59 0 76 92 114 145 60z m901 1 c58 -49 20 -146 -57 -146 -43 0 -79 39
-79 85 0 74 80 110 136 61z m5151 -42 c2 -5 -340 -352 -760 -772 -607 -607
-767 -762 -781 -756 -14 6 133 158 750 775 423 423 773 768 778 766 6 -2 11
-7 13 -13z m-666 -868 c-616 -616 -773 -768 -783 -758 -18 18 1520 1556 1540
1540 11 -9 -140 -165 -757 -782z m856 678 c2 -5 -343 -355 -767 -779 -602
-602 -771 -765 -776 -752 -5 14 166 190 757 782 420 421 768 764 773 762 6 -2
11 -7 13 -13z m100 -99 c2 -6 -165 -177 -369 -380 -205 -204 -551 -547 -769
-764 -242 -240 -401 -391 -408 -386 -15 9 1507 1547 1527 1543 9 -2 17 -8 19
-13z m-667 -868 c-558 -555 -776 -765 -784 -757 -7 7 203 224 759 780 623 623
772 767 783 758 11 -10 -132 -157 -758 -781z m-6156 763 c39 -14 60 -63 46
-106 -6 -19 -20 -39 -30 -44 -26 -14 -82 -12 -102 4 -46 34 -40 113 11 141 31
17 42 18 75 5z m925 -16 c24 -20 31 -34 31 -60 0 -91 -125 -118 -160 -35 -17
42 -5 78 33 101 42 26 59 25 96 -6z m6087 -65 c4 -7 -306 -324 -761 -779 -604
-604 -771 -766 -781 -757 -10 10 150 175 754 779 422 423 770 768 774 768 4 0
10 -5 14 -11z m869 -769 l420 -420 -423 0 -422 0 0 420 c0 231 1 420 3 420 1
0 191 -189 422 -420z m-7400 374 c34 -37 33 -78 -4 -115 -36 -36 -70 -37 -110
-3 -24 20 -31 34 -31 60 0 77 94 113 145 58z"/>
<path d="M9785 19790 c10 -11 20 -20 23 -20 3 0 -3 9 -13 20 -10 11 -20 20
-23 20 -3 0 3 -9 13 -20z"/>
<path d="M4912 15042 c-9 -7 -8 -13 8 -27 18 -16 23 -17 30 -5 12 19 3 31 -17
23 -11 -4 -14 -3 -9 5 8 14 6 15 -12 4z"/>
<path d="M4956 14975 c4 -8 8 -15 10 -15 2 0 4 7 4 15 0 8 -4 15 -10 15 -5 0
-7 -7 -4 -15z"/>
<path d="M4987 14966 c-3 -8 7 -26 24 -40 16 -14 29 -31 29 -37 0 -5 5 -7 11
-4 7 5 5 13 -6 25 -9 10 -15 24 -13 31 2 9 -4 13 -16 11 -10 -2 -15 1 -12 7 4
5 2 12 -3 15 -5 3 -11 0 -14 -8z"/>
<path d="M5067 14886 c-3 -8 3 -22 14 -32 17 -15 22 -16 29 -4 12 20 4 29 -23
23 -16 -3 -18 -2 -8 5 8 6 9 12 3 16 -5 3 -12 0 -15 -8z"/>
<path d="M5171 14790 c-14 -8 -7 -30 9 -30 11 0 21 28 12 34 -5 3 -14 1 -21
-4z"/>
<path d="M5193 14744 c4 -5 20 -10 35 -12 15 -2 23 0 19 4 -4 5 -20 10 -35 12
-15 2 -23 0 -19 -4z"/>
<path d="M5239 14697 c22 -21 27 -19 34 9 1 4 -11 8 -27 10 l-29 3 22 -22z"/>
<path d="M5276 14655 c4 -8 10 -12 15 -9 11 6 2 24 -11 24 -5 0 -7 -7 -4 -15z"/>
<path d="M5318 14617 c18 -18 24 -19 31 -8 5 7 13 11 19 7 6 -3 13 -3 16 2 3
5 0 9 -7 10 -7 0 -28 3 -47 6 l-34 6 22 -23z"/>
<path d="M19715 18280 c3 -5 8 -10 11 -10 2 0 4 5 4 10 0 6 -5 10 -11 10 -5 0
-7 -4 -4 -10z"/>
<path d="M19810 18181 c0 -5 9 -11 21 -14 16 -4 18 -3 8 9 -13 16 -29 19 -29
5z"/>
<path d="M19884 18111 c20 -22 26 -25 26 -13 0 4 -10 13 -22 21 -23 14 -23 14
-4 -8z"/>
<path d="M19760 18030 c0 -19 11 -26 23 -14 8 8 -3 34 -14 34 -5 0 -9 -9 -9
-20z"/>
<path d="M19985 18012 c11 -9 31 -28 44 -42 15 -15 19 -17 11 -5 -26 38 -53
65 -64 65 -6 0 -2 -8 9 -18z"/>
<path d="M20115 17880 c3 -5 8 -10 11 -10 2 0 4 5 4 10 0 6 -5 10 -11 10 -5 0
-7 -4 -4 -10z"/>
<path d="M19600 17744 c0 -14 3 -14 15 -4 8 7 15 14 15 16 0 2 -7 4 -15 4 -8
0 -15 -7 -15 -16z"/>
<path d="M19357 17509 c12 -12 25 -20 28 -17 3 3 -7 13 -22 23 l-28 17 22 -23z"/>
<path d="M19437 17429 c7 -7 15 -10 18 -7 3 3 -2 9 -12 12 -14 6 -15 5 -6 -5z"/>
<path d="M19580 17429 c0 -5 5 -7 10 -4 6 3 10 8 10 11 0 2 -4 4 -10 4 -5 0
-10 -5 -10 -11z"/>
<path d="M19470 17400 c0 -5 5 -10 11 -10 5 0 7 5 4 10 -3 6 -8 10 -11 10 -2
0 -4 -4 -4 -10z"/>
<path d="M19510 17385 c-11 -13 -11 -18 0 -28 10 -10 11 -9 5 2 -5 9 -1 19 10
28 11 7 14 13 8 13 -6 0 -16 -7 -23 -15z"/>
<path d="M19550 17320 c0 -5 5 -10 11 -10 5 0 7 5 4 10 -3 6 -8 10 -11 10 -2
0 -4 -4 -4 -10z"/>
<path d="M19580 17293 c0 -6 8 -17 18 -24 16 -13 16 -13 2 6 -8 11 -16 22 -17
24 -2 2 -3 0 -3 -6z"/>
<path d="M20190 16686 c0 -2 8 -10 18 -17 15 -13 16 -12 3 4 -13 16 -21 21
-21 13z"/>
<path d="M20510 16361 c0 -5 7 -12 16 -15 14 -5 15 -4 4 9 -14 17 -20 19 -20
6z"/>
<path d="M20620 16251 c0 -6 4 -13 10 -16 6 -3 7 1 4 9 -7 18 -14 21 -14 7z"/>
<path d="M20670 16207 c0 -3 12 -19 26 -34 19 -20 24 -22 16 -7 -11 21 -42 51
-42 41z"/>
<path d="M20990 15886 c0 -2 8 -10 18 -17 15 -13 16 -12 3 4 -13 16 -21 21
-21 13z"/>
<path d="M21490 15376 c0 -2 8 -10 18 -17 15 -13 16 -12 3 4 -13 16 -21 21
-21 13z"/>
<path d="M21650 15216 c0 -2 8 -10 18 -17 15 -13 16 -12 3 4 -13 16 -21 21
-21 13z"/>
<path d="M21810 15056 c0 -2 8 -10 18 -17 15 -13 16 -12 3 4 -13 16 -21 21
-21 13z"/>
<path d="M21970 14896 c0 -2 8 -10 18 -17 15 -13 16 -12 3 4 -13 16 -21 21
-21 13z"/>
<path d="M22130 14736 c0 -2 8 -10 18 -17 15 -13 16 -12 3 4 -13 16 -21 21
-21 13z"/>
<path d="M22140 12726 c0 -2 8 -10 18 -17 15 -13 16 -12 3 4 -13 16 -21 21
-21 13z"/>
<path d="M22215 12711 c-3 -5 -1 -12 5 -16 5 -3 10 1 10 9 0 18 -6 21 -15 7z"/>
<path d="M22220 12646 c0 -2 8 -10 18 -17 15 -13 16 -12 3 4 -13 16 -21 21
-21 13z"/>
<path d="M22266 12622 c-2 -4 -1 -14 4 -22 7 -11 9 -9 7 8 -1 24 -3 26 -11 14z"/>
<path d="M22295 12620 c3 -5 8 -10 11 -10 2 0 4 5 4 10 0 6 -5 10 -11 10 -5 0
-7 -4 -4 -10z"/>
<path d="M22380 12486 c0 -2 8 -10 18 -17 15 -13 16 -12 3 4 -13 16 -21 21
-21 13z"/>
<path d="M25096 8543 c-6 -14 -5 -15 5 -6 7 7 10 15 7 18 -3 3 -9 -2 -12 -12z"/>
<path d="M25665 7990 c-3 -6 1 -7 9 -4 18 7 21 14 7 14 -6 0 -13 -4 -16 -10z"/>
<path d="M26400 19998 c0 -2 810 -812 1800 -1802 l1800 -1798 0 1068 0 1069
-479 -479 c-291 -291 -481 -474 -485 -467 -9 14 -26 5 -22 -12 1 -7 1 -8 -2
-4 -2 4 -11 2 -20 -5 -14 -11 -14 -9 1 8 9 11 17 28 17 36 0 20 -26 42 -40 33
-6 -3 -10 3 -10 14 0 14 -6 21 -20 21 -12 0 -17 5 -14 13 6 17 -21 41 -36 32
-6 -3 -10 3 -10 14 0 14 -6 21 -20 21 -13 0 -20 7 -20 19 0 11 -4 22 -10 26
-5 3 -7 12 -3 20 4 12 -3 15 -31 15 -25 0 -34 4 -30 13 6 17 -21 41 -36 32 -6
-3 -10 3 -10 14 0 14 -6 21 -20 21 -11 0 -20 6 -20 13 0 18 -24 67 -32 67 -5
0 -8 7 -8 15 0 8 -6 15 -13 15 -23 0 -67 25 -67 38 0 6 -9 12 -20 12 -12 0
-17 5 -14 13 11 28 -32 43 -65 23 -9 -6 -12 -5 -7 2 3 5 0 13 -6 16 -7 3 -6 4
4 3 9 -1 16 3 15 8 -1 6 -6 9 -12 7 -8 -3 1110 1122 1453 1461 l92 91 0 148 0
148 -1800 0 c-990 0 -1800 -1 -1800 -2z"/>
<path d="M28479 18173 c-12 -16 -12 -17 2 -6 9 7 20 9 24 5 5 -4 5 -1 1 6 -9
16 -11 15 -27 -5z"/>
<path d="M26887 11272 l-2077 -2077 232 -230 c289 -285 343 -336 353 -327 5 4
5 2 2 -4 -8 -13 67 -86 79 -76 4 4 4 2 1 -4 -8 -14 66 -87 78 -77 4 5 5 3 2
-3 -6 -11 67 -85 78 -78 3 2 3 1 0 -3 -7 -9 54 -72 1775 -1795 l1555 -1558
517 517 518 518 0 3118 0 3119 -512 519 c-281 285 -514 519 -517 519 -3 0
-941 -935 -2084 -2078z m2440 1470 c-10 -10 -15 -21 -12 -24 3 -3 -4 -5 -17
-4 -13 0 -23 -5 -23 -11 0 -7 -3 -12 -6 -10 -4 1 -16 -7 -28 -17 -12 -11 -21
-14 -21 -8 0 6 9 17 20 25 11 8 17 17 12 22 -4 5 -2 5 4 2 7 -4 17 0 24 8 7 8
16 13 20 10 4 -3 13 2 20 10 7 8 15 15 18 15 3 0 -2 -8 -11 -18z m33 -81 c0
-18 6 -21 40 -21 36 0 40 -3 40 -25 0 -17 4 -23 14 -19 8 3 20 -3 27 -14 12
-19 14 -19 26 -4 11 15 12 13 13 -17 0 -26 3 -32 16 -27 11 4 19 -3 27 -24 6
-16 17 -30 24 -30 7 0 13 -5 13 -12 0 -6 7 -3 15 8 8 10 15 15 14 9 -4 -27 16
-78 33 -82 10 -3 18 -13 18 -23 0 -11 7 -17 17 -16 12 0 19 -7 21 -21 2 -15
10 -23 23 -23 11 0 19 -7 19 -16 0 -8 4 -13 10 -9 13 8 52 -33 44 -47 -5 -8
-2 -9 9 -5 10 3 17 2 17 -4 0 -6 4 -8 9 -4 5 3 12 1 16 -5 4 -6 12 -7 18 -3
20 13 34 11 34 -3 0 -7 -4 -11 -9 -8 -4 3 -8 -1 -8 -8 0 -10 -2 -10 -9 1 -6 9
-11 10 -15 2 -4 -6 -12 -9 -17 -5 -5 3 -6 10 -3 16 4 7 2 8 -4 4 -18 -11 -14
-22 10 -33 21 -9 20 -11 -27 -61 -27 -28 -52 -49 -57 -46 -5 3 -7 1 -6 -5 4
-16 -1583 -1601 -1596 -1594 -6 3 -8 2 -4 -2 10 -11 -143 -166 -155 -158 -6 3
-7 2 -4 -4 8 -13 -147 -166 -158 -156 -4 4 -6 3 -2 -3 7 -13 -147 -166 -158
-156 -5 4 -5 2 -2 -4 6 -10 -69 -92 -78 -86 -3 1 -5 -1 -5 -5 -1 -14 -63 -72
-74 -70 -5 1 -10 -3 -11 -9 0 -6 -20 -31 -44 -55 -25 -24 -38 -35 -30 -24 13
19 13 19 -4 6 -9 -8 -15 -16 -12 -19 8 -8 -46 -62 -56 -56 -4 2 -11 -1 -15 -7
-5 -8 -2 -10 7 -5 8 4 4 -2 -9 -13 -13 -11 -30 -17 -39 -14 -11 4 -14 3 -9 -6
4 -6 -1 -19 -11 -29 -11 -9 -12 -13 -3 -7 10 6 8 2 -4 -13 -11 -12 -21 -20
-23 -18 -5 5 -58 -47 -56 -55 1 -3 -291 -298 -648 -655 -358 -357 -649 -644
-648 -639 5 33 -3 43 -41 49 -38 6 -40 8 -40 41 0 36 -8 40 -67 38 -7 -1 -13
10 -13 24 0 18 -4 24 -15 19 -8 -3 -15 -1 -15 4 0 6 7 10 15 10 8 0 15 4 15 9
0 5 -6 9 -12 8 -39 -1 -50 4 -44 19 4 12 2 15 -9 10 -9 -3 -15 0 -15 9 0 8
-10 16 -22 16 l-23 2 23 4 c23 5 31 21 10 20 -56 -2 -68 3 -68 29 0 21 -3 24
-14 15 -10 -9 -15 -8 -20 4 -3 8 0 15 6 15 7 0 3 6 -7 14 -11 8 -23 12 -27 10
-5 -3 -8 -1 -8 4 0 5 -9 12 -19 15 -12 3 -22 18 -26 38 -4 19 -12 42 -17 53
-8 15 -12 16 -19 5 -7 -11 -9 -10 -9 4 0 9 8 18 18 18 16 1 16 2 0 6 -12 3
-18 14 -18 34 0 22 -5 29 -20 29 -10 0 -24 9 -30 20 -12 22 -6 40 13 40 7 0 6
-4 -3 -10 -8 -5 -12 -12 -8 -15 3 -3 16 9 29 27 20 28 21 31 4 19 -11 -8 257
263 595 602 598 600 615 616 635 599 11 -9 138 -134 283 -277 144 -143 268
-260 275 -260 6 0 12 5 12 10 0 6 4 16 8 23 5 8 3 12 -7 12 -9 0 -16 -4 -16
-10 0 -15 -17 -12 -23 3 -3 9 6 13 32 13 20 -1 41 -4 48 -9 8 -5 8 -1 0 18 -9
18 -19 24 -37 22 -14 -1 -29 -6 -33 -12 -4 -6 -7 -1 -6 10 5 42 -12 84 -34 87
-16 2 -22 10 -21 26 1 26 -5 28 -20 7 -9 -13 -11 -10 -11 17 0 26 -4 34 -21
36 -12 2 -30 12 -40 23 -20 22 -41 25 -47 7 -2 -7 -3 -4 -1 8 2 11 -5 26 -16
34 -11 8 -20 20 -20 26 0 17 -88 104 -105 104 -7 0 -15 -6 -18 -12 -2 -7 -2 8
1 35 3 35 1 47 -9 48 -8 0 -5 4 6 9 16 7 17 9 3 9 -9 1 -20 -3 -23 -9 -11 -18
-23 -11 -18 10 3 12 0 20 -7 20 -7 0 -9 8 -5 21 5 16 4 19 -5 14 -9 -5 -11 -4
-6 3 11 18 -3 35 -18 23 -9 -7 -12 -4 -13 12 0 12 1 16 4 9 3 -6 10 -9 16 -5
7 4 16 8 21 8 12 0 17 33 6 40 -5 3 -7 -3 -5 -14 3 -15 0 -18 -13 -14 -10 4
-12 8 -4 11 7 2 10 7 7 12 -2 4 5 16 16 26 15 13 20 14 17 4 -2 -8 5 -14 17
-14 14 0 19 5 17 18 -3 13 1 17 12 13 21 -8 29 8 11 23 -14 11 -14 15 1 31 18
20 39 16 27 -4 -5 -8 -2 -8 9 0 8 7 18 9 22 5 4 -4 6 0 4 8 -2 8 2 14 9 13 12
-2 12 14 0 33 -3 6 3 20 15 30 12 11 18 14 15 7 -9 -14 9 -27 18 -13 4 6 11 8
16 5 5 -4 6 2 2 11 -5 13 -3 16 9 11 16 -6 19 15 5 29 -11 11 24 45 37 37 19
-12 35 -12 33 0 -1 7 3 11 10 10 12 -3 12 14 0 34 -7 11 57 73 76 73 4 0 6 4
3 9 -3 4 3 16 13 25 14 13 21 14 27 5 5 -8 3 -10 -6 -4 -9 6 -11 4 -5 -4 5 -9
15 -5 36 15 20 19 26 31 19 39 -7 8 -4 17 9 29 14 13 21 14 27 5 4 -8 3 -10
-4 -5 -7 4 -12 5 -12 2 0 -18 22 -10 49 18 24 24 29 36 20 41 -8 5 -10 4 -5
-3 4 -7 5 -12 2 -12 -15 0 -13 20 3 34 14 13 21 14 27 5 4 -8 3 -10 -4 -5 -7
4 -12 5 -12 2 0 -18 22 -10 49 18 24 24 29 36 20 41 -8 5 -10 4 -5 -3 4 -7 5
-12 2 -12 -15 0 -13 20 3 34 14 13 21 14 27 5 5 -8 3 -10 -6 -4 -9 5 -11 4 -6
-4 4 -6 12 -9 17 -5 5 3 7 10 3 15 -7 12 14 39 30 39 6 0 2 -7 -8 -15 -11 -8
-15 -15 -9 -15 5 0 18 9 27 19 13 14 14 21 5 27 -8 4 -10 3 -5 -4 4 -7 5 -12
2 -12 -15 0 -13 20 3 34 14 13 21 14 27 5 4 -8 3 -10 -4 -5 -7 4 -12 5 -12 2
0 -18 22 -10 49 18 24 24 29 36 20 41 -8 5 -10 4 -5 -3 4 -7 5 -12 2 -12 -15
0 -13 20 3 34 14 13 21 14 27 5 5 -8 3 -10 -6 -4 -9 5 -11 4 -6 -4 4 -6 12 -9
17 -5 5 3 7 10 3 15 -8 14 17 41 32 35 17 -7 28 10 13 20 -8 4 -9 3 -5 -4 4
-7 5 -12 2 -12 -15 0 -13 20 3 34 14 13 21 14 27 5 5 -8 3 -10 -6 -4 -9 6 -11
4 -5 -4 5 -9 15 -5 36 15 20 19 26 31 19 39 -7 8 -4 17 9 29 14 13 21 14 27 5
5 -8 3 -10 -6 -4 -9 5 -11 4 -6 -4 4 -6 12 -9 17 -5 5 3 7 10 3 15 -8 14 17
41 32 35 17 -7 28 10 13 20 -8 5 -9 3 -4 -6 6 -9 4 -11 -4 -6 -9 6 -8 13 5 27
12 13 21 16 28 9 13 -13 59 29 47 44 -5 7 38 57 121 139 72 71 127 123 122
116 -4 -8 -3 -10 4 -5 6 4 9 12 6 20 -3 7 32 47 80 92 47 43 163 156 258 249
95 94 184 179 198 188 14 10 18 15 10 11 -8 -3 35 42 95 102 61 60 161 160
222 222 72 73 114 108 119 101 4 -7 3 -9 -3 -6 -6 4 -17 -1 -24 -10 -12 -15
-12 -16 1 -8 8 6 20 10 25 10 6 0 9 7 8 15 -2 8 12 33 31 54 24 29 35 36 41
26 6 -9 4 -11 -5 -5 -9 6 -11 4 -5 -4 6 -10 12 -8 27 6 13 14 35 20 74 22 49
2 54 0 54 -18z m-1460 -1325 c0 -3 -4 -8 -10 -11 -5 -3 -10 -1 -10 4 0 6 5 11
10 11 6 0 10 -2 10 -4z m-576 -575 c-10 -10 -21 -17 -23 -15 -6 6 20 34 32 34
6 0 2 -8 -9 -19z m-241 -239 c-10 -10 -20 -17 -22 -16 -6 5 20 34 30 34 5 0 1
-8 -8 -18z m-80 -80 c-10 -10 -20 -17 -22 -16 -6 5 20 34 30 34 5 0 1 -8 -8
-18z m-80 -80 c-10 -10 -20 -17 -22 -16 -6 5 20 34 30 34 5 0 1 -8 -8 -18z
m-59 -71 c3 -5 -2 -8 -12 -7 -11 1 -16 -6 -15 -18 1 -13 -2 -15 -10 -7 -7 7
-6 15 3 26 14 17 26 19 34 6z m-84 -231 c0 -5 -4 -10 -10 -10 -5 0 -10 5 -10
10 0 6 5 10 10 10 6 0 10 -4 10 -10z m60 -118 c0 -15 -2 -15 -10 -2 -13 20
-13 33 0 25 6 -3 10 -14 10 -23z m44 -48 c5 -14 4 -15 -9 -4 -17 14 -19 20 -6
20 5 0 12 -7 15 -16z m66 0 c0 -8 -5 -12 -10 -9 -6 4 -8 11 -5 16 9 14 15 11
15 -7z m-25 -24 c3 -5 2 -10 -4 -10 -5 0 -13 5 -16 10 -3 6 -2 10 4 10 5 0 13
-4 16 -10z m105 -56 c0 -8 -5 -12 -10 -9 -6 4 -8 11 -5 16 9 14 15 11 15 -7z
m-60 -4 c0 -5 -2 -10 -4 -10 -3 0 -8 5 -11 10 -3 6 -1 10 4 10 6 0 11 -4 11
-10z m34 -25 c3 -8 1 -15 -3 -15 -5 0 -11 7 -15 15 -3 8 -1 15 3 15 5 0 11 -7
15 -15z m37 -52 c13 -16 12 -17 -3 -4 -17 13 -22 21 -14 21 2 0 10 -8 17 -17z
m50 -31 c-7 -2 -18 1 -23 6 -8 8 -4 9 13 5 13 -4 18 -8 10 -11z m53 -17 c3 -8
1 -15 -4 -15 -6 0 -10 7 -10 15 0 8 2 15 4 15 2 0 6 -7 10 -15z m32 -45 c-1
-32 -21 -36 -22 -4 0 23 4 34 15 34 5 0 8 -13 7 -30z m-1349 -1325 c0 -8 -4
-12 -9 -9 -4 3 -8 9 -8 15 0 5 4 9 8 9 5 0 9 -7 9 -15z"/>
<path d="M29245 12659 c-4 -6 -5 -12 -2 -15 2 -3 7 2 10 11 7 17 1 20 -8 4z"/>
<path d="M29843 12173 c4 -3 1 -13 -6 -22 -11 -14 -10 -14 5 -2 16 12 16 31 1
31 -4 0 -3 -3 0 -7z"/>
<path d="M28634 12088 c-19 -23 -19 -23 2 -5 11 9 24 14 29 10 4 -5 5 -2 1 5
-9 16 -10 16 -32 -10z"/>
<path d="M28069 11523 c-13 -16 -12 -17 4 -4 9 7 17 15 17 17 0 8 -8 3 -21
-13z"/>
<path d="M28036 11474 c-23 -23 -20 -30 4 -9 11 10 20 20 20 22 0 7 -9 2 -24
-13z"/>
<path d="M27989 11448 c-5 -18 -6 -38 -1 -34 7 8 12 36 6 36 -2 0 -4 -1 -5 -2z"/>
<path d="M27909 11363 c-13 -16 -12 -17 4 -4 9 7 17 15 17 17 0 8 -8 3 -21
-13z"/>
<path d="M27189 10645 c-1 -3 -2 -8 -3 -12 -2 -12 -44 -52 -49 -47 -2 2 -12
-6 -23 -18 -11 -13 -13 -18 -4 -12 8 5 24 9 35 9 11 0 20 7 20 15 0 8 7 15 14
15 9 0 16 11 16 28 2 23 -2 37 -6 22z"/>
<path d="M26796 10175 c-4 -10 1 -15 16 -15 17 0 18 2 8 15 -7 8 -14 15 -15
15 -2 0 -5 -7 -9 -15z"/>
<path d="M27240 9575 c-7 -9 -8 -15 -2 -15 5 0 12 7 16 15 3 8 4 15 2 15 -2 0
-9 -7 -16 -15z"/>
<path d="M25464 8908 l-19 -23 23 19 c12 11 22 21 22 23 0 8 -8 2 -26 -19z"/>
<path d="M25412 8825 c-11 -13 -10 -15 7 -15 14 0 19 5 15 15 -7 18 -6 18 -22
0z"/>
<path d="M5470 13079 c0 -5 5 -7 10 -4 6 3 10 8 10 11 0 2 -4 4 -10 4 -5 0
-10 -5 -10 -11z"/>
<path d="M5190 12799 c0 -5 5 -7 10 -4 6 3 10 8 10 11 0 2 -4 4 -10 4 -5 0
-10 -5 -10 -11z"/>
<path d="M0 8330 l0 -4095 2047 2048 2048 2047 -2048 2047 -2047 2048 0 -4095z
m777 1818 c29 -32 37 -65 22 -99 -12 -30 -54 -59 -84 -59 -33 0 -73 30 -84 63
-21 63 18 117 84 117 30 0 47 -6 62 -22z m-474 -440 c34 -18 46 -39 47 -81 0
-83 -100 -120 -154 -56 -35 41 -34 83 3 120 31 31 67 37 104 17z m928 -17 c60
-60 22 -150 -64 -151 -83 0 -120 100 -56 154 41 35 83 34 120 -3z m-477 -435
c87 -36 55 -170 -40 -170 -98 0 -121 137 -29 175 28 11 31 11 69 -5z m934 -18
c46 -44 23 -129 -42 -152 -47 -16 -116 36 -116 88 0 31 26 69 55 82 36 16 72
10 103 -18z m-1363 -453 c28 -27 34 -88 12 -116 -36 -47 -97 -51 -138 -10 -37
37 -38 79 -3 120 34 41 92 44 129 6z m896 12 c47 -36 51 -97 10 -138 -37 -37
-79 -38 -120 -3 -64 54 -27 154 56 154 21 0 45 -6 54 -13z m921 -17 c26 -27
30 -36 25 -68 -11 -69 -74 -100 -136 -67 -33 16 -41 33 -41 81 0 80 93 113
152 54z m-1388 -430 c33 -12 60 -64 51 -99 -11 -43 -44 -71 -85 -71 -69 0
-110 54 -89 117 16 51 69 74 123 53z m925 -16 c65 -54 28 -154 -58 -154 -32 0
-44 6 -65 31 -29 34 -32 61 -13 99 27 53 89 64 136 24z m912 -3 c58 -58 24
-151 -55 -151 -48 0 -65 8 -81 41 -19 36 -19 69 1 97 34 49 93 54 135 13z
m-2262 -457 c28 -36 27 -86 -3 -121 -53 -61 -156 -21 -156 61 0 51 38 86 94
86 36 0 48 -5 65 -26z m905 1 c34 -32 35 -83 2 -122 -19 -22 -32 -28 -66 -28
-53 0 -90 38 -90 91 0 76 95 113 154 59z m904 5 c45 -43 36 -117 -19 -145 -40
-21 -63 -19 -98 11 -64 54 -28 154 57 154 25 0 46 -7 60 -20z m-1361 -454 c22
-19 28 -32 28 -66 0 -100 -132 -126 -171 -34 -12 29 -12 39 0 68 8 19 22 39
33 45 31 18 80 13 110 -13z m908 -1 c56 -55 18 -155 -59 -155 -53 0 -91 37
-91 90 0 34 6 47 28 66 38 32 90 32 122 -1z m-1357 -461 c30 -35 30 -87 -3
-119 -54 -55 -155 -16 -155 59 0 86 101 125 158 60z m889 16 c77 -47 43 -160
-47 -160 -119 0 -119 175 0 179 8 1 30 -8 47 -19z m-441 -464 c53 -45 28 -139
-40 -151 -96 -19 -153 104 -74 159 33 23 82 20 114 -8z"/>
<path d="M7345 9590 l-1551 -1549 2566 -2566 2565 -2565 -1455 -1455 -1455
-1455 475 0 474 0 -59 60 -59 60 29 30 29 30 91 -90 91 -91 126 3 126 3 -150
154 -149 154 28 29 27 29 186 -186 185 -185 135 0 135 0 -253 253 -253 253 31
29 31 29 282 -282 283 -283 127 3 127 3 -331 330 c-181 182 -335 338 -340 349
-9 15 -6 23 15 45 l26 26 378 -378 377 -377 135 0 135 0 -445 445 -444 444 29
31 29 31 476 -476 475 -475 130 0 130 0 -539 540 -540 540 29 30 29 31 571
-571 570 -570 135 0 135 0 -638 638 -638 638 31 29 30 29 665 -665 665 -664
130 -3 c72 -1 130 0 130 3 0 3 -326 331 -725 730 -399 398 -725 728 -725 733
0 5 11 19 25 32 l26 24 762 -762 762 -762 135 0 135 0 -830 830 -829 829 24
26 c13 14 28 25 34 25 5 0 393 -385 861 -855 l852 -855 134 0 134 0 -925 925
-924 924 29 31 29 31 956 -956 955 -955 135 0 135 0 -1023 1023 -1023 1023 31
29 31 29 1050 -1052 1050 -1052 132 0 132 0 -1118 1118 -1118 1118 31 29 31
29 1147 -1147 1147 -1147 135 0 135 0 -1215 1215 -1214 1214 24 26 c13 14 27
25 32 25 5 0 565 -558 1246 -1240 l1238 -1240 135 0 134 0 -1310 1310 -1309
1309 29 31 29 31 1341 -1341 1340 -1340 135 0 135 0 -1408 1408 -1408 1408 31
29 31 30 1434 -1438 1435 -1437 132 0 133 0 -1503 1503 -1503 1503 31 29 31
29 1532 -1532 1532 -1532 2595 0 2595 0 -1194 1194 -1193 1193 -829 -831 -828
-831 -2193 2192 -2193 2193 830 830 830 830 -2185 2185 c-1202 1202 -2187
2185 -2190 2185 -3 0 -703 -698 -1555 -1550z m1730 954 c10 10 45 14 122 15
97 2 109 0 123 -18 8 -11 26 -22 40 -25 14 -2 24 -9 22 -15 -1 -6 6 -14 15
-18 10 -4 26 -16 36 -27 11 -12 25 -20 34 -18 9 2 13 -3 11 -15 -2 -12 4 -19
20 -21 16 -3 22 -10 22 -28 0 -21 4 -24 20 -19 16 5 20 2 21 -17 1 -13 1 -27
-1 -33 -1 -5 4 -4 11 3 21 20 34 14 14 -8 -10 -11 -22 -17 -26 -14 -5 3 -7 -1
-4 -8 3 -8 -230 -248 -565 -583 l-570 -570 -170 170 c-199 200 -213 216 -202
245 4 12 11 22 15 22 25 0 46 13 50 30 4 15 11 18 27 13 19 -6 21 -4 15 15 -5
16 -2 23 13 27 11 2 23 14 25 25 4 15 11 18 27 13 19 -6 21 -4 15 15 -5 16 -2
23 13 27 11 2 23 14 25 25 4 15 11 18 26 13 16 -5 21 -2 19 12 -4 46 2 63 22
63 14 0 20 6 18 18 -2 11 4 18 20 20 14 2 22 10 22 23 0 12 7 19 20 19 13 0
20 7 20 20 0 13 7 20 20 20 13 0 20 7 20 20 0 13 7 20 20 20 13 0 20 7 20 20
0 13 7 20 20 20 13 0 20 7 20 20 0 13 7 20 20 20 13 0 20 7 20 20 0 13 7 20
20 20 13 0 20 7 20 20 0 13 7 20 20 20 13 0 20 7 20 20 0 13 7 20 20 20 13 0
20 7 20 20 0 13 7 20 20 20 13 0 20 7 20 20 0 13 7 20 20 20 13 0 20 7 20 20
0 13 7 20 20 20 15 0 20 7 20 26 0 20 4 25 16 20 11 -4 18 1 21 14 3 11 14 20
24 20 11 0 18 3 18 8 -4 26 3 42 21 42 11 0 20 7 20 15 0 8 8 15 19 15 10 0
21 9 24 20 3 11 12 20 20 20 8 0 18 10 22 23 6 19 8 19 12 5 4 -15 7 -16 18
-4z m-775 -754 c0 -5 -4 -10 -10 -10 -5 0 -10 5 -10 10 0 6 5 10 10 10 6 0 10
-4 10 -10z m-80 -80 c0 -5 -4 -10 -10 -10 -5 0 -10 5 -10 10 0 6 5 10 10 10 6
0 10 -4 10 -10z m-80 -80 c0 -5 -4 -10 -10 -10 -5 0 -10 5 -10 10 0 6 5 10 10
10 6 0 10 -4 10 -10z m5363 -7263 c-3 -6 -2 -7 4 -4 6 4 223 -205 483 -464
l472 -471 -68 -69 -69 -69 -457 457 c-267 267 -456 463 -453 471 3 7 0 10 -5
7 -10 -6 -165 149 -165 165 0 5 -4 12 -9 17 -5 5 -6 3 -2 -4 13 -23 1 -14 -39
29 -22 23 -31 36 -21 28 18 -14 19 -13 13 3 -8 21 -3 22 17 1 11 -10 16 -11
16 -3 0 6 16 27 35 46 19 19 35 39 35 44 0 6 5 7 10 4 6 -3 10 -11 10 -16 0
-6 -4 -7 -10 -4 -5 3 -10 3 -11 -2 0 -4 -2 -18 -3 -30 -1 -12 1 -20 6 -17 5 4
7 12 4 20 -6 16 5 19 20 4 7 -7 10 -1 9 17 0 17 -8 32 -20 38 -11 6 -21 17
-23 25 -2 8 49 -36 112 -99 63 -63 112 -119 109 -124z"/>
<path d="M9080 10536 c0 -2 9 -6 20 -9 11 -3 20 -1 20 4 0 5 -9 9 -20 9 -11 0
-20 -2 -20 -4z"/>
<path d="M9445 10410 c3 -5 8 -10 11 -10 2 0 4 5 4 10 0 6 -5 10 -11 10 -5 0
-7 -4 -4 -10z"/>
<path d="M13335 2520 c3 -5 8 -10 11 -10 2 0 4 5 4 10 0 6 -5 10 -11 10 -5 0
-7 -4 -4 -10z"/>
<path d="M13260 2470 c0 -5 5 -10 11 -10 5 0 7 5 4 10 -3 6 -8 10 -11 10 -2 0
-4 -4 -4 -10z"/>
<path d="M13190 2446 c0 -3 9 -10 20 -16 11 -6 20 -8 20 -6 0 3 -9 10 -20 16
-11 6 -20 8 -20 6z"/>
<path d="M15202 8418 l-792 -793 2050 -2050 2051 -2051 794 796 795 795 -2048
2048 c-1126 1126 -2049 2047 -2052 2047 -3 0 -362 -357 -798 -792z m1467
-1304 l882 -880 -134 -137 c-74 -75 -138 -137 -143 -137 -8 0 -1635 1625
-1793 1791 -49 53 -69 79 -60 85 8 5 10 3 4 -6 -5 -8 -4 -11 3 -6 6 4 9 13 6
20 -3 9 6 15 25 19 18 4 31 13 31 22 0 8 5 15 11 15 5 0 7 5 3 12 -5 7 -2 9 9
5 11 -4 14 -2 11 7 -3 8 5 16 20 20 14 3 26 13 26 20 0 8 7 16 15 20 8 3 15
12 15 20 0 7 11 17 25 20 16 4 25 13 25 26 0 10 8 23 17 29 14 7 28 0 69 -37
28 -26 448 -443 933 -928z"/>
<path d="M15716 8037 c3 -10 9 -15 12 -12 3 3 0 11 -7 18 -10 9 -11 8 -5 -6z"/>
<path d="M2538 4786 l-2538 -2541 0 -1122 0 -1123 1795 0 1795 0 0 632 0 633
633 -633 632 -632 870 0 870 0 1458 1458 1457 1457 -2208 2208 c-1214 1214
-2212 2206 -2217 2205 -6 0 -1152 -1145 -2547 -2542z m962 484 c0 -5 -5 -10
-11 -10 -5 0 -7 5 -4 10 3 6 8 10 11 10 2 0 4 -4 4 -10z m991 -947 l634 -633
-143 -142 -143 -143 -796 798 -796 798 48 44 c26 25 52 45 57 45 5 0 7 4 3 9
-5 10 12 26 29 26 5 0 13 12 16 26 9 33 56 80 89 89 14 3 27 12 27 18 1 7 2
15 3 18 2 10 285 -267 972 -953z m3089 -2328 l425 -425 -428 0 -427 0 0 425
c0 234 1 425 3 425 1 0 193 -191 427 -425z"/>
<path d="M12653 5871 l-753 -756 2050 -2050 2050 -2050 758 755 758 755 -2051
2053 c-1127 1128 -2052 2051 -2055 2050 -3 0 -344 -341 -757 -757z m3352
-2971 l420 -420 -423 0 -422 0 0 420 c0 231 1 420 3 420 1 0 191 -189 422
-420z"/>
</g>
</svg>
