<svg id="_0483_data_organization" xmlns="http://www.w3.org/2000/svg" xmlns:xlink="http://www.w3.org/1999/xlink" viewBox="0 0 500 500" data-imageid="data-storage-2-20" imageName="Data Storage 2" class="illustrations_image" style="width: 188px;"><defs><style>.cls-1_data-storage-2-20{fill:url(#linear-gradient);}.cls-1_data-storage-2-20,.cls-2_data-storage-2-20,.cls-3_data-storage-2-20,.cls-4_data-storage-2-20,.cls-5_data-storage-2-20,.cls-6_data-storage-2-20,.cls-7_data-storage-2-20,.cls-8_data-storage-2-20,.cls-9_data-storage-2-20,.cls-10_data-storage-2-20,.cls-11_data-storage-2-20,.cls-12_data-storage-2-20{stroke-width:0px;}.cls-2_data-storage-2-20{isolation:isolate;opacity:.18;}.cls-2_data-storage-2-20,.cls-12_data-storage-2-20{fill:#68e1fd;}.cls-3_data-storage-2-20{fill:url(#linear-gradient-4-data-storage-2-20);}.cls-4_data-storage-2-20{fill:url(#linear-gradient-2-data-storage-2-20);}.cls-5_data-storage-2-20{fill:url(#linear-gradient-3-data-storage-2-20);}.cls-6_data-storage-2-20{fill:url(#linear-gradient-5-data-storage-2-20);}.cls-7_data-storage-2-20{fill:url(#linear-gradient-6-data-storage-2-20);}.cls-8_data-storage-2-20{fill:#473f47;}.cls-9_data-storage-2-20{fill:#c14834;}.cls-10_data-storage-2-20{fill:#fff;}.cls-11_data-storage-2-20{fill:#ffbbab;}</style><linearGradient id="linear-gradient-data-storage-2-20" x1="-2307.53" y1="3001.35" x2="-2525.11" y2="3021.4" gradientTransform="translate(-2042.68 3365.39) rotate(-180)" gradientUnits="userSpaceOnUse"><stop offset="0" stop-color="#231f20"/><stop offset=".13" stop-color="#231f20" stop-opacity=".69"/><stop offset=".25" stop-color="#231f20" stop-opacity=".32"/><stop offset="1" stop-color="#231f20" stop-opacity="0"/></linearGradient><linearGradient id="linear-gradient-2-data-storage-2-20" x1="-2403.4" y1="3046.41" x2="-2522.22" y2="2945.2" gradientTransform="translate(-2042.68 3365.39) rotate(-180)" xlink:href="#linear-gradient-data-storage-2-20"/><linearGradient id="linear-gradient-3-data-storage-2-20" x1="-2215.23" y1="3044.17" x2="-2334.03" y2="2942.96" gradientTransform="translate(-2042.68 3365.39) rotate(-180)" xlink:href="#linear-gradient-data-storage-2-20"/><linearGradient id="linear-gradient-4-data-storage-2-20" x1="639.86" y1="3026.93" x2="837.45" y2="3052" gradientTransform="translate(-507.16 3365.39) scale(1 -1)" xlink:href="#linear-gradient-data-storage-2-20"/><linearGradient id="linear-gradient-5-data-storage-2-20" x1="-2264.02" y1="3067.32" x2="-2611.17" y2="3070.25" gradientTransform="translate(-2042.68 3365.39) rotate(-180)" xlink:href="#linear-gradient-data-storage-2-20"/><linearGradient id="linear-gradient-6-data-storage-2-20" x1="-2258.45" y1="3129.39" x2="-2607.55" y2="3166.06" xlink:href="#linear-gradient-data-storage-2-20"/></defs><g id="background_data-storage-2-20"><path class="cls-2_data-storage-2-20 targetColor" d="M143.04,87.96c-45.87,41.89-58.64,108.05-90.35,161.34C31.83,284.41,1.17,318.23,3.05,359.03c.53,11.42,3.68,22.54,7.21,33.42,4.02,12.33,8.66,24.64,16.07,35.28,19.3,27.71,54.78,39.96,88.52,41.39,33.74,1.43,67.1-6.21,100.65-9.98,22.15-2.48,44.45-3.27,66.71-4.19,38.92-1.55,78.45-3.71,115.22-16.6,36.77-12.89,70.96-38.23,85.54-74.34,14.27-35.36,7.76-76.64-10.13-110.29-17.89-33.65-46.14-60.67-76.02-84.32-23.77-18.8-48.88-36.22-67.75-60.3-13.33-17.06-23.27-41.05-43.9-50.71-43.95-20.46-108.35-1.26-142.14,29.57Z" style="fill: rgb(104, 225, 253);"/></g><g id="data_data-storage-2-20"><rect class="cls-12_data-storage-2-20 targetColor" x="208.33" y="334.92" width="156.22" height="54.27" rx="14.46" ry="14.46" style="fill: rgb(104, 225, 253);"/><rect class="cls-12_data-storage-2-20 targetColor" x="208.33" y="270.38" width="156.22" height="54.27" rx="14.46" ry="14.46" style="fill: rgb(104, 225, 253);"/><rect class="cls-1_data-storage-2-20" x="208.33" y="334.92" width="156.22" height="54.27" rx="14.46" ry="14.46"/><path class="cls-12_data-storage-2-20 targetColor" d="M442.18,321.75c-.31,2.97-1.35,5.81-3.01,8.28-6.64,11.74-14.1,23.27-24.39,32.04-15.14,12.8-34.97,18.32-54.11,23.49,1.71-.82,3.77-9.65,4.53-11.59,1.55-3.8,2.87-7.63,4.28-11.45,2.25-6.03,6.98-10.86,11.59-15.33,10.41-10.04,23.05-17.47,36.89-21.67,7.85-2.4,16.01-3.67,24.22-3.77Z" style="fill: rgb(104, 225, 253);"/><path class="cls-4_data-storage-2-20" d="M442.18,321.75c-.31,2.97-1.35,5.81-3.01,8.28-6.64,11.74-14.1,23.27-24.39,32.04-15.14,12.8-34.97,18.32-54.11,23.49,1.71-.82,3.77-9.65,4.53-11.59,1.55-3.8,2.87-7.63,4.28-11.45,2.25-6.03,6.98-10.86,11.59-15.33,10.41-10.04,23.05-17.47,36.89-21.67,7.85-2.4,16.01-3.67,24.22-3.77Z"/><path class="cls-12_data-storage-2-20 targetColor" d="M367.28,328.33c1.55-10.86,3.1-22,7.56-32.11,4.45-10.11,12.01-19.35,22.36-23.27.31,15.64.62,31.28.92,46.93.17,9.04.33,18.24-2.26,26.92-4.56,15.17-20.34,32.98-35.54,37.99-2.25-7.29,1.55-18.34,2.61-25.91l4.37-30.55Z" style="fill: rgb(104, 225, 253);"/><ellipse class="cls-2_data-storage-2-20 targetColor" cx="236.82" cy="387.74" rx="213.31" ry="17.56" style="fill: rgb(104, 225, 253);"/><path class="cls-12_data-storage-2-20 targetColor" d="M254.03,323.97c-.35,2.97-1.41,5.82-3.1,8.28-6.64,11.74-14.09,23.27-24.39,32.02-15.14,12.81-34.97,18.32-54.11,23.5,1.72-.84,3.77-9.66,4.53-11.6,1.55-3.8,2.87-7.63,4.3-11.45,2.25-6.03,6.98-10.86,11.57-15.33,10.41-10.05,23.05-17.5,36.89-21.72,7.89-2.38,16.07-3.63,24.31-3.71Z" style="fill: rgb(104, 225, 253);"/><path class="cls-5_data-storage-2-20" d="M254.03,323.97c-.35,2.97-1.41,5.82-3.1,8.28-6.64,11.74-14.09,23.27-24.39,32.02-15.14,12.81-34.97,18.32-54.11,23.5,1.72-.84,3.77-9.66,4.53-11.6,1.55-3.8,2.87-7.63,4.3-11.45,2.25-6.03,6.98-10.86,11.57-15.33,10.41-10.05,23.05-17.5,36.89-21.72,7.89-2.38,16.07-3.63,24.31-3.71Z"/><path class="cls-12_data-storage-2-20 targetColor" d="M179.14,330.5c1.55-10.86,3.1-22,7.56-32.11s12.02-19.41,22.34-23.19c.31,15.65.62,31.29.92,46.93.17,9.04.33,18.26-2.26,26.92-4.55,15.17-20.34,32.98-35.54,37.99-2.25-7.29,1.55-18.34,2.61-25.91l4.39-30.62Z" style="fill: rgb(104, 225, 253);"/><path class="cls-3_data-storage-2-20" d="M179.14,330.5c1.55-10.86,3.1-22,7.56-32.11s12.02-19.41,22.34-23.19c.31,15.65.62,31.29.92,46.93.17,9.04.33,18.26-2.26,26.92-4.55,15.17-20.34,32.98-35.54,37.99-2.25-7.29,1.55-18.34,2.61-25.91l4.39-30.62Z"/><rect class="cls-6_data-storage-2-20" x="208.33" y="270.38" width="156.22" height="54.27" rx="14.46" ry="14.46"/><rect class="cls-12_data-storage-2-20 targetColor" x="192.94" y="334.92" width="156.22" height="54.27" rx="14.46" ry="14.46" style="fill: rgb(104, 225, 253);"/><path class="cls-12_data-storage-2-20 targetColor" d="M192.94,284.83v25.36c0,7.98,6.45,14.45,14.43,14.46h127.34c7.98,0,14.44-6.47,14.44-14.44v-25.38c0-7.98-6.45-14.45-14.43-14.46h-127.32c-7.99,0-14.46,6.47-14.46,14.46Z" style="fill: rgb(104, 225, 253);"/><rect class="cls-12_data-storage-2-20 targetColor" x="208.33" y="201.44" width="156.22" height="54.27" rx="14.46" ry="14.46" style="fill: rgb(104, 225, 253);"/><rect class="cls-7_data-storage-2-20" x="208.33" y="201.44" width="156.22" height="54.27" rx="14.46" ry="14.46"/><rect class="cls-12_data-storage-2-20 targetColor" x="192.94" y="201.44" width="156.22" height="54.27" rx="14.46" ry="14.46" style="fill: rgb(104, 225, 253);"/><path class="cls-10_data-storage-2-20" d="M284.78,168.83c0,10.28-8.33,18.62-18.62,18.62h-127.66c-10.28,0-18.62-8.33-18.62-18.62s8.33-18.62,18.62-18.62h4.33c-5.44-19.52,5.97-39.75,25.49-45.19,3.2-.89,6.51-1.35,9.83-1.35h10.86c13.7-.01,26.27,7.62,32.58,19.78,3.09-1.59,6.53-2.42,10.01-2.4h2.81c12.18,0,22.06,9.88,22.06,22.06h0v.9c0,2.1-.29,4.19-.88,6.21h10.56c10.28,0,18.62,8.32,18.63,18.6v.02Z"/><circle class="cls-10_data-storage-2-20" cx="324.68" cy="229.15" r="6.14"/><circle class="cls-10_data-storage-2-20" cx="306.22" cy="229.15" r="6.14"/><circle class="cls-10_data-storage-2-20" cx="287.76" cy="229.15" r="6.14"/><circle class="cls-10_data-storage-2-20" cx="324.68" cy="297.52" r="6.14"/><circle class="cls-10_data-storage-2-20" cx="306.22" cy="297.52" r="6.14"/><circle class="cls-10_data-storage-2-20" cx="287.76" cy="297.52" r="6.14"/><circle class="cls-10_data-storage-2-20" cx="324.68" cy="365.87" r="6.14"/><circle class="cls-10_data-storage-2-20" cx="306.22" cy="365.87" r="6.14"/><circle class="cls-10_data-storage-2-20" cx="287.76" cy="365.87" r="6.14"/><g id="Q83r0t_data-storage-2-20"><path class="cls-10_data-storage-2-20" d="M253.02,321.94c-1.31.03-2.58-.47-3.52-1.4-.7-.67-1.35-1.38-2.06-2.03-1.29-1.39-3.33-1.79-5.04-.98-1.77.67-2.93,2.39-2.87,4.28v3.1c-.04,2.69-2.26,4.84-4.95,4.79-.01,0-.02,0-.03,0h-5.79c-2.73.04-4.98-2.14-5.03-4.87,0-.04,0-.07,0-.11v-3.1c0-1.86-1.17-3.51-2.92-4.14-1.66-.76-3.62-.39-4.89.93-.7.65-1.35,1.37-2.05,2.03-1.94,1.98-5.12,2.02-7.11.07-.03-.02-.05-.05-.07-.07-1.41-1.4-2.84-2.79-4.24-4.22-1.97-1.84-2.07-4.92-.24-6.88.08-.08.15-.16.24-.24.65-.67,1.35-1.3,1.99-1.97,1.33-1.25,1.73-3.21,1.01-4.89-.62-1.76-2.27-2.93-4.13-2.95h-3.1c-2.72.07-4.99-2.07-5.07-4.8,0-.15,0-.31,0-.46v-5.48c-.08-2.63,1.95-4.84,4.58-4.98,1.05-.09,2.13,0,3.2,0,1.96.12,3.77-1.05,4.47-2.89.79-1.8.3-3.91-1.21-5.18-.62-.64-1.27-1.26-1.89-1.91-1.89-1.88-1.9-4.93-.02-6.82,0,0,.01-.01.02-.02,1.55-1.55,3.1-3.1,4.65-4.53,1.95-1.8,4.97-1.76,6.87.09.73.7,1.4,1.43,2.14,2.11,1.27,1.31,3.23,1.67,4.89.9,1.75-.62,2.91-2.3,2.89-4.16v-2.89c-.1-2.75,2.05-5.06,4.8-5.16.15,0,.31,0,.46,0h5.4c2.74-.12,5.06,2,5.18,4.74,0,.09,0,.19,0,.28v2.79c-.04,2.57,2.01,4.69,4.58,4.73,1.28.02,2.52-.49,3.41-1.41.64-.62,1.26-1.27,1.91-1.89,1.96-1.96,5.13-1.96,7.09,0h0c1.55,1.43,2.95,2.89,4.39,4.36,1.92,1.84,1.99,4.9.14,6.82-.05.05-.09.1-.14.14-.7.71-1.44,1.4-2.14,2.11-1.74,1.89-1.61,4.84.28,6.58.69.64,1.56,1.05,2.5,1.18,1.09.12,2.19,0,3.29.08,2.51-.16,4.67,1.73,4.83,4.24,0,.14.01.28,0,.41.06,2.07.06,4.16,0,6.28.08,2.57-1.93,4.72-4.5,4.8-.17,0-.33,0-.5-.01h-2.89c-1.83.04-3.44,1.22-4.02,2.95-.72,1.64-.33,3.55.96,4.78.7.71,1.44,1.4,2.13,2.11,1.93,1.86,1.98,4.94.11,6.87-.04.04-.08.08-.11.11-1.43,1.55-2.9,2.93-4.37,4.37-.94.91-2.21,1.39-3.52,1.35ZM215.68,291.39c-.02,8.82,7.12,15.98,15.93,15.99,8.82.02,15.98-7.12,15.99-15.93.02-8.81-7.11-15.97-15.92-15.99-8.81-.03-15.98,7.08-16.01,15.89,0,.02,0,.03,0,.05Z"/></g></g><g id="character_data-storage-2-20"><path class="cls-9_data-storage-2-20" d="M156.71,317.36c-2.33,1.05-4.46,2.49-6.3,4.27-1.86,1.79-2.87,4.29-2.79,6.87.23,3.1,2.45,5.62,4.78,7.65,2.68,2.34,5.91,4.79,6.13,8.33,1.91-1.41,3.63-3.1,5.6-4.41,3.44-2.34,7.49-3.6,11.28-5.34s7.52-4.19,9.31-7.94c.99-2.38,1.56-4.91,1.68-7.48.38-2.73.46-5.5.22-8.25-.26-2.77-1.47-5.36-3.43-7.34-1.45-1.21-3.1-2.16-4.87-2.82-1.68-.83-3.49-1.36-5.35-1.55-4.27.18-8.05,2.82-9.68,6.78-.78,2.08-.42,4.42-1.18,6.48-.9,2.5-3.23,3.6-5.38,4.75Z"/><path class="cls-11_data-storage-2-20" d="M49.51,375.71c-.62-.41-1.3-.73-2.02-.93-.74-.19-1.52.07-2.02.65-.36.65-.36,1.44,0,2.09.31.67.76,1.26,1.05,1.92.19.65.44,1.28.74,1.88.71.81,1.66,1.37,2.71,1.6,4.62,1.65,8.91,4.09,12.67,7.23.35.33.74.6,1.16.82,1.4.43,2.93.11,4.03-.85,2.44-1.93,4.4-4.4,5.76-7.2.18-.29.3-.62.33-.96-.02-.31-.12-.61-.29-.87-2.61-4.44-7.21-2.02-11.26-2.02-4.51.02-8.95-1.14-12.88-3.37Z"/><path class="cls-8_data-storage-2-20" d="M179.95,380.17s-8.5,15.06-24.25,10.97c-15.75-4.1-36.52-22.84-36.52-22.84,0,0-20.99,11.71-36.05,13.96l-10.05,2.02c-3.05-1.09-5.01-4.07-4.79-7.31,0,0,41.55-23.95,45.66-25.09,4.91-1.49,10.15-1.49,15.06,0,6.39,1.83,31.03,8.8,31.03,8.8l19.92,19.49Z"/><polygon class="cls-12_data-storage-2-20 targetColor" points="95.99 313.93 109.13 350.37 139.54 353.03 139.54 350.37 111.63 347.42 99.28 312.94 95.99 313.93" style="fill: rgb(104, 225, 253);"/><path class="cls-11_data-storage-2-20" d="M160.42,295.31c-.57.96-1.75,1.55-2.13,2.58s.43,2.58.88,3.85c.64,1.77.43,3.75,1.05,5.54.11.39.32.74.62,1.01.28.19.61.31.95.36,1.32.28,2.67.37,4.02.25.26-.06.54-.02.78.11.2.17.32.41.34.67.77,3.37.72,6.88-.16,10.22-.28,1.1-.61,2.44.22,3.23.29.27.64.45,1.02.53,2.54.62,5-1.27,6.72-3.24,1.53-1.77,2.86-3.71,3.94-5.79.33-.58.56-1.21.68-1.86.04-.85-.09-1.7-.36-2.51-.72-2.78-1.17-5.62-1.32-8.49-.19-3.68.08-7.51-1.33-10.86-.41-1.17-1.19-2.17-2.22-2.85-1.24-.59-2.61-.81-3.97-.64-2.67.09-5.6.47-7.42,2.42-.53.53-1.63,4.3-2.33,5.49Z"/><path class="cls-12_data-storage-2-20 targetColor" d="M179.13,312.98s-10.98,5.69-14.3,10.15c-3.32,4.45-8.75,7.76-6.66,16.2,2.09,8.44-.47,21.35-.47,21.35,0,0,4.76,15.02,16.49,18.82,11.73,3.8,8.52,2.59,8.52,2.59,0,0,6.21-27.92,8.67-35.68s-1.54-34.66-12.26-33.42Z" style="fill: rgb(104, 225, 253);"/><path class="cls-9_data-storage-2-20" d="M163.94,289.4c.24,1.79,1.1,3.44,2.44,4.65,1.3,1.23,2.92,2.05,4.25,3.23,1.47,1.08,2.28,2.84,2.14,4.65,1.07-.44,2.3-.04,2.92.93.28.68.16,1.46-.31,2.02-.49.54-1.2.83-1.92.79,1.39.57,2.59,1.53,3.43,2.78.95,1.38,1.4,3.1,2.25,4.5,1.07,1.47,2.41,2.73,3.94,3.71.7.46,1.29,1.08,1.71,1.8.31,1.11.69,2.2,1.13,3.26.84,1.55,2.17,2.59,3.1,3.97,1.51,2.21,2.37,4.79,2.5,7.46-.08-.79-.08-1.58,0-2.37.26-.48.54-.95.79-1.44.43-.87.75-1.78.98-2.71.32-2.14.38-4.31.19-6.47,0-4.65,4.36-13.36.85-17.31-1.21-1.37-3.1-1.99-4.44-3.1-3.1-2.56-3.54-7.07-5.48-10.6-1.75-3.11-4.67-5.4-8.11-6.35-4.59-1.26-12.92.17-12.35,6.61Z"/><path class="cls-12_data-storage-2-20 targetColor" d="M174.91,327.46s-6.95,18.77-8.32,20.17,13.37,9.66,13.37,9.66c0,0,9.6-18.24,9.15-26.16s-8.81-11.12-14.21-3.68Z" style="fill: rgb(104, 225, 253);"/><path class="cls-11_data-storage-2-20" d="M179.95,354.73s-.51,6.05-7.93,5.94-32.98-.47-32.98-.47c-2.25-1.15-5.32-1.35-7-3.24-.79-.9-1.21-2.08-1.99-3.01-1.06-1.14-2.48-1.86-4.02-2.06-1.54-.22-3.1-.26-4.65-.12-.63-.72-.63-1.79,0-2.51.65-.66,1.48-1.12,2.39-1.3,3.79-.98,7.81-.43,11.19,1.55.96.69,2,1.25,3.1,1.66.83.16,1.67.21,2.51.14,9.51-.45,18.9-2.48,28.41-2.9,2.22-.23,4.47,0,6.59.68,2.29,1.06,3.92,3.17,4.37,5.65Z"/></g></svg>