<svg id="_0260_bug_fixing" xmlns="http://www.w3.org/2000/svg" xmlns:xlink="http://www.w3.org/1999/xlink" viewBox="0 0 500 500" data-imageid="bug-fixing-1-94" imageName="Bug Fixing 1" class="illustrations_image" style="width: 188px;"><defs><style>.cls-1_bug-fixing-1-94{fill:url(#linear-gradient);}.cls-1_bug-fixing-1-94,.cls-2_bug-fixing-1-94,.cls-3_bug-fixing-1-94,.cls-4_bug-fixing-1-94,.cls-5_bug-fixing-1-94,.cls-6_bug-fixing-1-94,.cls-7_bug-fixing-1-94,.cls-8_bug-fixing-1-94,.cls-9_bug-fixing-1-94,.cls-10_bug-fixing-1-94,.cls-11_bug-fixing-1-94,.cls-12_bug-fixing-1-94,.cls-13_bug-fixing-1-94,.cls-14_bug-fixing-1-94,.cls-15_bug-fixing-1-94,.cls-16_bug-fixing-1-94,.cls-17_bug-fixing-1-94,.cls-18_bug-fixing-1-94,.cls-19_bug-fixing-1-94,.cls-20_bug-fixing-1-94,.cls-21_bug-fixing-1-94,.cls-22_bug-fixing-1-94,.cls-23_bug-fixing-1-94,.cls-24_bug-fixing-1-94,.cls-25_bug-fixing-1-94{stroke-width:0px;}.cls-2_bug-fixing-1-94{fill:url(#linear-gradient-11-bug-fixing-1-94);}.cls-3_bug-fixing-1-94{fill:url(#linear-gradient-12-bug-fixing-1-94);}.cls-4_bug-fixing-1-94{fill:url(#linear-gradient-13-bug-fixing-1-94);}.cls-5_bug-fixing-1-94{fill:url(#linear-gradient-10-bug-fixing-1-94);}.cls-6_bug-fixing-1-94{fill:url(#linear-gradient-16-bug-fixing-1-94);}.cls-7_bug-fixing-1-94{fill:url(#linear-gradient-15-bug-fixing-1-94);}.cls-8_bug-fixing-1-94{fill:url(#linear-gradient-14-bug-fixing-1-94);}.cls-9_bug-fixing-1-94{opacity:.2;}.cls-9_bug-fixing-1-94,.cls-10_bug-fixing-1-94,.cls-11_bug-fixing-1-94,.cls-20_bug-fixing-1-94{isolation:isolate;}.cls-9_bug-fixing-1-94,.cls-11_bug-fixing-1-94,.cls-22_bug-fixing-1-94{fill:#231f20;}.cls-10_bug-fixing-1-94{opacity:.36;}.cls-10_bug-fixing-1-94,.cls-20_bug-fixing-1-94,.cls-25_bug-fixing-1-94{fill:#68e1fd;}.cls-11_bug-fixing-1-94{opacity:.07;}.cls-12_bug-fixing-1-94{fill:url(#linear-gradient-4-bug-fixing-1-94);}.cls-13_bug-fixing-1-94{fill:url(#linear-gradient-2-bug-fixing-1-94);}.cls-14_bug-fixing-1-94{fill:url(#linear-gradient-3-bug-fixing-1-94);}.cls-15_bug-fixing-1-94{fill:url(#linear-gradient-8-bug-fixing-1-94);}.cls-16_bug-fixing-1-94{fill:url(#linear-gradient-9-bug-fixing-1-94);}.cls-17_bug-fixing-1-94{fill:url(#linear-gradient-7-bug-fixing-1-94);}.cls-18_bug-fixing-1-94{fill:url(#linear-gradient-5-bug-fixing-1-94);}.cls-19_bug-fixing-1-94{fill:url(#linear-gradient-6-bug-fixing-1-94);}.cls-20_bug-fixing-1-94{opacity:.24;}.cls-21_bug-fixing-1-94{fill:#606161;}.cls-23_bug-fixing-1-94{fill:#c14834;}.cls-24_bug-fixing-1-94{fill:#fff;}</style><linearGradient id="linear-gradient-bug-fixing-1-94" x1="728.72" y1="1480.98" x2="729.96" y2="1588.74" gradientTransform="translate(-471 1884.69) scale(1 -1)" gradientUnits="userSpaceOnUse"><stop offset="0" stop-color="#231f20" stop-opacity="0"/><stop offset="1" stop-color="#231f20"/></linearGradient><linearGradient id="linear-gradient-2-bug-fixing-1-94" x1="732.04" y1="1789.28" x2="733.47" y2="1261.06" gradientTransform="translate(-471.4 1881.03) scale(1 -1)" xlink:href="#linear-gradient-bug-fixing-1-94"/><linearGradient id="linear-gradient-3-bug-fixing-1-94" x1="729.71" y1="1549.43" x2="729.82" y2="1510.99" xlink:href="#linear-gradient-bug-fixing-1-94"/><linearGradient id="linear-gradient-4-bug-fixing-1-94" x1="803.69" y1="1667.97" x2="811.13" y2="1651.04" gradientTransform="translate(-471.4 1881.03) scale(1 -1)" xlink:href="#linear-gradient-bug-fixing-1-94"/><linearGradient id="linear-gradient-5-bug-fixing-1-94" x1="793.86" y1="1658.86" x2="789.38" y2="1654.87" gradientTransform="translate(-471.4 1881.03) scale(1 -1)" xlink:href="#linear-gradient-bug-fixing-1-94"/><linearGradient id="linear-gradient-6-bug-fixing-1-94" x1="817.4" y1="1657.55" x2="794.79" y2="1638.41" gradientTransform="translate(-471.4 1881.03) scale(1 -1)" xlink:href="#linear-gradient-bug-fixing-1-94"/><linearGradient id="linear-gradient-7-bug-fixing-1-94" x1="760.66" y1="1697.24" x2="843.73" y2="1582.42" gradientTransform="translate(-471.4 1881.03) scale(1 -1)" gradientUnits="userSpaceOnUse"><stop offset="0" stop-color="#fff" stop-opacity="0"/><stop offset=".13" stop-color="#fff" stop-opacity=".23"/><stop offset=".23" stop-color="#fff" stop-opacity=".41"/><stop offset=".35" stop-color="#fff" stop-opacity=".59"/><stop offset=".48" stop-color="#fff" stop-opacity=".74"/><stop offset=".6" stop-color="#fff" stop-opacity=".85"/><stop offset=".72" stop-color="#fff" stop-opacity=".93"/><stop offset=".84" stop-color="#fff" stop-opacity=".98"/><stop offset=".95" stop-color="#fff"/></linearGradient><linearGradient id="linear-gradient-8-bug-fixing-1-94" x1="841.04" y1="1610.09" x2="823.1" y2="1613.24" gradientTransform="translate(-471.4 1881.03) scale(1 -1)" xlink:href="#linear-gradient-bug-fixing-1-94"/><linearGradient id="linear-gradient-9-bug-fixing-1-94" x1="835.21" y1="1608.03" x2="807.08" y2="1614.24" gradientTransform="translate(-471.4 1881.03) scale(1 -1)" gradientUnits="userSpaceOnUse"><stop offset="0" stop-color="#010101" stop-opacity="0"/><stop offset=".55" stop-color="#010101" stop-opacity=".26"/><stop offset=".95" stop-color="#010101"/></linearGradient><linearGradient id="linear-gradient-10-bug-fixing-1-94" x1="819.82" y1="1701.51" x2="818.34" y2="1684.23" gradientTransform="translate(-471.4 1881.03) scale(1 -1)" xlink:href="#linear-gradient-bug-fixing-1-94"/><linearGradient id="linear-gradient-11-bug-fixing-1-94" x1="821.67" y1="1687.21" x2="818.09" y2="1687.37" gradientTransform="translate(-471.4 1881.03) scale(1 -1)" xlink:href="#linear-gradient-bug-fixing-1-94"/><linearGradient id="linear-gradient-12-bug-fixing-1-94" x1="806.92" y1="1629.43" x2="854.82" y2="1682.85" gradientTransform="translate(-471.4 1881.03) scale(1 -1)" xlink:href="#linear-gradient-bug-fixing-1-94"/><linearGradient id="linear-gradient-13-bug-fixing-1-94" x1="817.93" y1="1596.96" x2="821.63" y2="1567" gradientTransform="translate(-471.4 1881.03) scale(1 -1)" xlink:href="#linear-gradient-bug-fixing-1-94"/><linearGradient id="linear-gradient-14-bug-fixing-1-94" x1="834.31" y1="1599.05" x2="838.01" y2="1569.05" gradientTransform="translate(-471.4 1881.03) scale(1 -1)" xlink:href="#linear-gradient-bug-fixing-1-94"/><linearGradient id="linear-gradient-15-bug-fixing-1-94" x1="788" y1="1719.57" x2="754.41" y2="1651.53" gradientTransform="translate(-471.4 1881.03) scale(1 -1)" xlink:href="#linear-gradient-bug-fixing-1-94"/><linearGradient id="linear-gradient-16-bug-fixing-1-94" x1="778.21" y1="1724.3" x2="744.78" y2="1656.6" gradientTransform="translate(-471.4 1881.03) scale(1 -1)" xlink:href="#linear-gradient-bug-fixing-1-94"/></defs><path id="background_bug-fixing-1-94" class="cls-20_bug-fixing-1-94 targetColor" d="M210.72,97.78c-38.64-8.47-83.44-1.86-109.55,28.51-11.21,12.99-18.1,29.24-24.38,45.35-8.14,20.81-15.8,42.19-28.9,60.16-11.96,16.47-28.6,30.24-34.8,49.76-9.13,28.77,7.45,59.3,26.49,82.44,10.25,12.42,21.69,24.3,36.06,31.19,12.22,5.84,25.84,7.75,39.25,9.23,77.04,8.5,154.8,5.25,232.22,1.99,21.78-.91,43.65-1.85,65.07-5.98,16.88-3.28,33.71-8.72,47.64-19.01,13.94-10.29,24.71-25.99,26.32-43.49,1.44-15.69-4.46-31.18-12.22-44.78-6.22-10.89-13.87-21.6-15.19-34.08-1.2-11.27,2.92-22.33,4.91-33.48,6.12-34.23-9.89-71.49-38.69-90.02-19.39-12.47-42.68-16.48-65.29-20.23l-53.6-8.89c-15.88-2.64-29.05-.74-44.74.2-17.25,1.03-33.96-5.22-50.61-8.87Z" style="fill: rgb(104, 225, 253);"/><g id="monitor_bug-fixing-1-94"><polygon class="cls-25_bug-fixing-1-94 targetColor" points="309.83 397.25 205.55 397.25 223.74 360.39 296.03 360.39 309.83 397.25" style="fill: rgb(104, 225, 253);"/><polygon class="cls-1_bug-fixing-1-94" points="307.73 391.89 207.99 391.89 223.74 360.39 296.03 360.39 307.73 391.89"/><rect class="cls-25_bug-fixing-1-94 targetColor" x="197.02" y="394.6" width="122.44" height="8.93" style="fill: rgb(104, 225, 253);"/><path class="cls-25_bug-fixing-1-94 targetColor" d="M411.65,147.27v210.8c.05,5.37-4.26,9.77-9.63,9.82,0,0,0,0,0,0H120.05c-5.38-.05-9.7-4.44-9.66-9.82v-210.8c-.04-5.38,4.27-9.79,9.66-9.87h281.97c5.38.08,9.69,4.49,9.64,9.87Z" style="fill: rgb(104, 225, 253);"/><path class="cls-13_bug-fixing-1-94" d="M411.66,147.27v176.28H110.4v-176.28c-.06-5.39,4.26-9.8,9.65-9.87h281.97c5.39.07,9.7,4.48,9.65,9.87Z"/><rect class="cls-24_bug-fixing-1-94" x="121.46" y="149.82" width="280.4" height="166.07"/><ellipse class="cls-14_bug-fixing-1-94" cx="258.74" cy="345.36" rx="6.65" ry="6.8"/><rect class="cls-10_bug-fixing-1-94 targetColor" x="152.63" y="185.23" width="75.58" height="5.55" rx="2.74" ry="2.74" style="fill: rgb(104, 225, 253);"/><rect class="cls-10_bug-fixing-1-94 targetColor" x="177.04" y="201.32" width="75.58" height="5.55" rx="2.74" ry="2.74" style="fill: rgb(104, 225, 253);"/><rect class="cls-10_bug-fixing-1-94 targetColor" x="156.06" y="217.22" width="75.58" height="5.55" rx="2.74" ry="2.74" style="fill: rgb(104, 225, 253);"/></g><g id="character_bug-fixing-1-94"><path class="cls-9_bug-fixing-1-94" d="M324.93,205.76c-2.74,13.32-14.3,23.33-28.15,23.33-15.93,0-28.82-13.18-28.82-29.44-.01-3.94.76-7.84,2.26-11.48-.42,2.02-.63,4.07-.62,6.13,0,16.23,12.89,29.44,28.79,29.44,11.67-.06,22.15-7.15,26.53-17.97Z"/><path class="cls-9_bug-fixing-1-94" d="M349.18,215.21l-5.24,1.32,1.03,15.82h-26.49l-1.1-17.13-5.22,1.32,9.66,151.37h5.32l-.9-13.82h26.49l.9,13.82h5.29l-9.74-152.68ZM318.77,237.37h26.49l1.18,18.31h-26.49l-1.18-18.31ZM320.26,260.7h26.49l1.18,18.34h-26.49l-1.18-18.34ZM321.76,284.05h26.49l1.18,18.35h-26.49l-1.18-18.35ZM324.47,326.43l-1.23-18.99h26.49l1.19,18.31h-26.33l-.11.68ZM325.92,349.07l-1.19-18.34h26.49l1.18,18.34h-26.48Z"/><path class="cls-11_bug-fixing-1-94" d="M357.99,305.06c.41-6.77-1.81-13.44-6.19-18.62-.85,3.09-.16,6.37-.14,9.57.03,3.2-.85,6.84-3.64,8.35-3.02-2.2-3.79-6.37-4.32-10.12-1.96-13.79-3.92-27.58-5.89-41.37-1.97.96-4.41.15-6.02-1.37-1.61-1.51-2.56-3.59-3.48-5.61-4.11-9.06-8.29-18.43-8.6-28.4,1.55,2.12,3.14,4.27,5.32,5.71s5.13,1.97,7.37.66c1.4-.96,2.54-2.25,3.32-3.76,1.55-2.52,3.02-5.35,2.67-8.31-.28-1.49-.74-2.95-1.37-4.33-1.97-5.26-2.27-11.01-2.56-16.64-.11-.79,0-1.6.31-2.34.48-.74,1.22-1.27,2.07-1.49,4.74-1.37,9.74,1.11,11.52,5.71.96,2.67.69,5.61.85,8.45.58,8.44,5.25,16.02,6.9,24.32,1.29,6.51.67,13.24.04,19.85l-3.66,38.89"/><path class="cls-22_bug-fixing-1-94" d="M312.62,216.55l49.99,194.21c.33,1.38,1.72,2.22,3.09,1.89.01,0,.03,0,.04-.01h0c1.39-.39,2.2-1.82,1.84-3.21l-7.69-29.75h26.49l8,31.08c.33,1.38,1.72,2.22,3.09,1.89.01,0,.03,0,.04-.01h0c1.39-.39,2.2-1.82,1.84-3.21l-49.98-194.22-4.96,1.34,4.12,16.02h-26.49l-4.47-17.36-4.95,1.34ZM347.74,332.33h26.49l4.78,18.58h-26.49l-4.78-18.58ZM341.67,308.66h26.49l4.78,18.58h-26.33v.7l-4.94-19.28ZM335.59,284.99h26.49l4.78,18.58h-26.49l-4.78-18.58ZM329.47,261.29h26.49l4.78,18.58h-26.49l-4.78-18.58ZM323.38,237.63h26.49l4.78,18.58h-26.49l-4.78-18.58ZM385.12,374.56h-26.49l-4.78-18.58h26.49l4.78,18.58Z"/><path class="cls-25_bug-fixing-1-94 targetColor" d="M340.33,218.5c-.8,1.71-2.15,3.11-3.82,3.98l-7.05,4.44c-.3.16-.56.4-.74.69-.16.54-.08,1.12.22,1.59.37.94.88,1.82,1.5,2.61.63.8,1.59,1.26,2.61,1.26.88-.13,1.71-.5,2.41-1.06l8.02-5.43c.58-.33,1.07-.79,1.44-1.35.23-.49.35-1.03.36-1.57.22-2.5-.15-5.01-1.08-7.34-1.56-3.42-2.76.24-3.87,2.17Z" style="fill: rgb(104, 225, 253);"/><path class="cls-12_bug-fixing-1-94" d="M340.33,218.5c-.8,1.71-2.15,3.11-3.82,3.98l-7.05,4.44c-.3.16-.56.4-.74.69-.16.54-.08,1.12.22,1.59.37.94.88,1.82,1.5,2.61.63.8,1.59,1.26,2.61,1.26.88-.13,1.71-.5,2.41-1.06l8.02-5.43c.58-.33,1.07-.79,1.44-1.35.23-.49.35-1.03.36-1.57.22-2.5-.15-5.01-1.08-7.34-1.56-3.42-2.76.24-3.87,2.17Z"/><path class="cls-25_bug-fixing-1-94 targetColor" d="M326.12,230.86h0c-1.05.85-2.59.7-3.44-.35-.02-.02-.03-.04-.05-.06l-7.89-10.17c-.86-1.1-.67-2.68.41-3.56h0c1.04-.85,2.58-.69,3.43.35.02.02.03.04.05.07l7.89,10.19c.83,1.09.66,2.65-.4,3.53Z" style="fill: rgb(104, 225, 253);"/><path class="cls-18_bug-fixing-1-94" d="M326.12,230.86h0c-1.05.85-2.59.7-3.44-.35-.02-.02-.03-.04-.05-.06l-7.89-10.17c-.86-1.1-.67-2.68.41-3.56h0c1.04-.85,2.58-.69,3.43.35.02.02.03.04.05.07l7.89,10.19c.83,1.09.66,2.65-.4,3.53Z"/><path class="cls-25_bug-fixing-1-94 targetColor" d="M340.74,249.33h0c-1.91,1.55-4.71,1.26-6.26-.64-.03-.04-.06-.07-.09-.11l-14.39-18.62c-1.54-2.01-1.22-4.88.74-6.49h0c1.92-1.55,4.72-1.25,6.27.66.03.03.05.06.08.1l14.39,18.61c1.55,2.01,1.22,4.89-.74,6.49Z" style="fill: rgb(104, 225, 253);"/><path class="cls-19_bug-fixing-1-94" d="M340.74,249.33h0c-1.91,1.55-4.71,1.26-6.26-.64-.03-.04-.06-.07-.09-.11l-14.39-18.62c-1.54-2.01-1.22-4.88.74-6.49h0c1.92-1.55,4.72-1.25,6.27.66.03.03.05.06.08.1l14.39,18.61c1.55,2.01,1.22,4.89-.74,6.49Z"/><path class="cls-25_bug-fixing-1-94 targetColor" d="M297.91,164.92c-16.61,0-30.14,13.82-30.14,30.82s13.53,30.83,30.14,30.83,30.14-13.83,30.14-30.83-13.52-30.82-30.14-30.82ZM298.23,222.9c-14.63,0-26.49-12.17-26.49-27.12s11.89-27.13,26.49-27.13,26.49,12.18,26.49,27.13-11.87,27.12-26.49,27.12Z" style="fill: rgb(104, 225, 253);"/><path class="cls-17_bug-fixing-1-94" d="M297.91,164.92c-16.61,0-30.14,13.82-30.14,30.82s13.53,30.83,30.14,30.83,30.14-13.83,30.14-30.83-13.52-30.82-30.14-30.82ZM298.23,222.9c-14.63,0-26.49-12.17-26.49-27.12s11.89-27.13,26.49-27.13,26.49,12.18,26.49,27.13-11.87,27.12-26.49,27.12Z"/><path class="cls-21_bug-fixing-1-94" d="M362.25,270.1c-1.07,6.66.48,13.56,3.3,19.65.6,1.09,1.01,2.28,1.2,3.5.2,1.25-.36,2.51-1.42,3.2-1.29.69-2.88,0-4.05-.92-3.42-2.56-5.49-6.6-7.12-10.6-2.75-6.77-4.51-13.91-5.2-21.19-.44-3.25-.26-6.55.53-9.73.84-2.61,2.18-5.04,3.92-7.15.93-1.3,2.11-2.4,3.47-3.23,2.24-1.12,4.9-.98,7.01.38,2.56,1.58,2.88,3.42,2.86,6.25-.03,6.98-3.43,13.08-4.51,19.84Z"/><path class="cls-15_bug-fixing-1-94" d="M362.13,269.92c-1.08,6.66.48,13.56,3.3,19.65.6,1.09,1.01,2.27,1.2,3.49.2,1.25-.36,2.51-1.42,3.2-1.29.69-2.88,0-4.05-.92-3.42-2.56-5.49-6.6-7.13-10.6-2.75-6.77-4.5-13.91-5.19-21.18-.44-3.25-.26-6.55.53-9.73.84-2.61,2.17-5.04,3.92-7.16.93-1.29,2.11-2.39,3.47-3.23,2.24-1.12,4.9-.97,7.01.38,2.56,1.59,2.88,3.42,2.86,6.26-.03,6.94-3.43,13.08-4.51,19.84Z"/><path class="cls-21_bug-fixing-1-94" d="M354.35,268.75c-1.09,1.56-2,3.25-2.7,5.02-.54,1.92-.76,3.91-.67,5.9.02,3.37.21,6.75.58,10.1.21,1.9.47,3.91-.25,5.64-.72,1.73-2.85,2.88-4.21,1.71-.47-.49-.83-1.07-1.06-1.71-4.8-11.06-6.45-23.24-4.75-35.18.57-3.96,1.54-7.94,3.58-11.23,2.04-3.29,5.32-5.84,8.92-5.98,1.93-.08,5.2.67,6.46,2.5,1.26,1.84.4,5.03,0,7.24-.95,5.65-2.95,11.08-5.9,15.99Z"/><path class="cls-16_bug-fixing-1-94" d="M354.35,268.75c-1.09,1.56-2,3.25-2.7,5.02-.54,1.92-.76,3.91-.67,5.9.02,3.37.21,6.75.58,10.1.21,1.9.47,3.91-.25,5.64-.72,1.73-2.85,2.88-4.21,1.71-.47-.49-.83-1.07-1.06-1.71-4.8-11.06-6.45-23.24-4.75-35.18.57-3.96,1.54-7.94,3.58-11.23,2.04-3.29,5.32-5.84,8.92-5.98,1.93-.08,5.2.67,6.46,2.5,1.26,1.84.4,5.03,0,7.24-.95,5.65-2.95,11.08-5.9,15.99Z"/><path class="cls-23_bug-fixing-1-94" d="M323.34,229.2c-.36.59.53,1.5,0,1.99-.3.31-.81.09-1.23.17-.54.18-.87.72-.79,1.28.1.54.32,1.06.65,1.5l.94,1.47c.13.22.28.42.46.6.2.18.43.32.68.41,1.04.39,2.2.27,3.14-.33.2-.12.37-.28.51-.46.13-.18.23-.38.28-.6.25-1.41-.14-2.87-1.08-3.96-.69-.79-2.45-2.16-3.56-2.08Z"/><path class="cls-23_bug-fixing-1-94" d="M340.04,187.13c-.41,2.16-.46,4.37-.13,6.54l.4,4.17c0,1.01.28,1.99.78,2.86,1.02,1.48,3.05,1.66,4.81,1.71l.34,3.46c.01.46.12.91.32,1.32.55.75,1.51,1.09,2.41.85,2.56-.47,4.02-3.19,4.73-5.72,1-3.57,1.18-7.33.52-10.98-.34-2.63-1.5-5.09-3.32-7.03-3.68-3.54-9.58-2.29-10.88,2.82Z"/><path class="cls-21_bug-fixing-1-94" d="M345.04,177.82c-2.02-.33-4.27-.85-5.98.29-1.6,1.23-2.21,3.36-1.5,5.25.74,1.83,2.25,3.23,4.13,3.85,1.89.68,4.27.96,5.05,2.85.49,1.25,0,2.79.73,3.91l1.71-2.83c.05-.1.13-.19.23-.24.13-.03.26,0,.37.07,1.47.8,2.02,2.64,1.21,4.11-.32.58-.82,1.05-1.43,1.32,1.61,1.22,2.41,3.23,2.08,5.23.99.44,2.16.24,2.95-.5.76-.75,1.34-1.67,1.71-2.67.57-1.31,1.06-2.66,1.45-4.04.59-1.76.81-3.62.63-5.47-.18-1.86-1.21-3.53-2.79-4.52-1.23-.29-2.07-1.42-2.01-2.67-.89-4.57-5.14-3.32-8.54-3.92Z"/><path class="cls-5_bug-fixing-1-94" d="M345.04,177.82c-2.02-.33-4.27-.85-5.98.29-1.6,1.23-2.21,3.36-1.5,5.25.74,1.83,2.25,3.23,4.13,3.85,1.89.68,4.27.96,5.05,2.85.49,1.25,0,2.79.73,3.91l1.71-2.83c.05-.1.13-.19.23-.24.13-.03.26,0,.37.07,1.47.8,2.02,2.64,1.21,4.11-.32.58-.82,1.05-1.43,1.32,1.61,1.22,2.41,3.23,2.08,5.23.99.44,2.16.24,2.95-.5.76-.75,1.34-1.67,1.71-2.67.57-1.31,1.06-2.66,1.45-4.04.59-1.76.81-3.62.63-5.47-.18-1.86-1.21-3.53-2.79-4.52-1.23-.29-2.07-1.42-2.01-2.67-.89-4.57-5.14-3.32-8.54-3.92Z"/><path class="cls-2_bug-fixing-1-94" d="M348.72,194.6c.18-.1.31-.28.34-.48.02-.14.02-.29,0-.43-.06-.28-.06-.57,0-.85.08-.28.27-.52.52-.67.05-.02.11-.02.16,0,.04-.01.09-.01.14,0l.28.12c.08.03.16.08.21.15.03.06.06.12.07.18.19.88-.02,1.81-.59,2.51-.05.07-.12.13-.2.18-.1.05-.21.08-.32.08-.25.04-.51.02-.75-.07-.14-.08-.44-.26-.38-.44s.37-.22.51-.27Z"/><path class="cls-25_bug-fixing-1-94 targetColor" d="M367.14,241.57c-.05,1.86-.21,3.81-1.19,5.36-1.64,2.68-5.13,3.47-8.22,3.47-1.4.02-2.79-.12-4.16-.39-1.01-.17-2-.45-2.95-.85-2.27-.95-4.13-2.67-5.26-4.86-.77-1.82-1.23-3.75-1.34-5.72-.36-3.02-.72-6.04-1-9.09-.31-3.42-.51-6.78-.54-10.16-.09-2.7.21-5.4.9-8.01.68-2.6,2.23-4.89,4.39-6.49,1.71-1.18,5.03-2.67,7.19-2.36,2.41.34,4.03,3.57,4.98,5.56,5.07,10.44,7.54,21.96,7.19,33.56Z" style="fill: rgb(104, 225, 253);"/><path class="cls-3_bug-fixing-1-94" d="M354.33,234.46c-.5,2.9-.68,5.84-.54,8.78.15,1.97,1.23,4.41.15,6.27-.1.18-.23.35-.37.5-1.01-.17-2-.45-2.95-.85-2.27-.95-4.13-2.67-5.26-4.86-.77-1.82-1.23-3.75-1.34-5.72-.36-3.02-.72-6.04-1-9.09.69-2.81,2.83-5.07,4.75-7.22,2.75-3.02,5.39-6.31,6.63-10.25,1.17.65,1.97,1.82,2.15,3.15.16,1.33.12,2.67-.13,3.99-.72,5.08-1.42,10.18-2.1,15.31Z"/><path class="cls-25_bug-fixing-1-94 targetColor" d="M349.06,208.94c-3.57,3.32-4.58,8.54-6.78,12.94-.29.65-.68,1.24-1.14,1.78-1.04,1.13-2.56,1.61-4,2.12-2.94,1.05-5.75,2.41-8.38,4.08-1.3.66-2.35,1.75-2.96,3.08-.68,1.97.55,4.23,2.33,5.25,1.85.92,3.95,1.22,5.98.85,3.88-.58,7.65-1.75,11.18-3.47,1.23-.5,2.38-1.17,3.42-1.99.89-.83,1.69-1.76,2.37-2.78,1.17-1.57,2.24-3.21,3.22-4.9,1.88-3.37,3.05-7.09,3.42-10.94.26-1.76.07-3.56-.53-5.23-1.74-4.13-5.42-3.3-8.12-.79Z" style="fill: rgb(104, 225, 253);"/><path class="cls-23_bug-fixing-1-94" d="M352.22,298.75c.24.85.44,1.96-.11,2.69-.28.35-.68.58-1.13.64-.61.06-1.22-.1-1.71-.47-.5-.38-.9-.87-1.2-1.43-.51-.92-.8-1.95-.85-3-.04-.32.02-.65.15-.94.23-.36.58-.62.99-.73.77-.29,2.22-.79,2.88-.06s.73,2.37.97,3.29Z"/><path class="cls-23_bug-fixing-1-94" d="M368.16,296.33c.48.79.97,1.71.63,2.62-.17.42-.49.75-.9.93-.57.25-1.22.27-1.8.05-.58-.22-1.11-.57-1.54-1.03-.74-.74-1.3-1.64-1.62-2.63-.12-.3-.16-.63-.11-.95.12-.41.38-.76.74-.98.66-.5,1.91-1.4,2.75-.85s1.37,1.98,1.85,2.84Z"/><path class="cls-25_bug-fixing-1-94 targetColor" d="M350.36,300.64c-.5.18-1.05.23-1.57.14-.27-.05-.54-.05-.8,0-.23.08-.44.19-.63.32l-2.96,1.9c-.38.17-.68.48-.85.85-.11.52.13,1.05.59,1.32.46.23.96.36,1.47.37,2.31.21,4.64.13,6.94-.24.34-.03.66-.15.93-.35.18-.18.32-.41.4-.66.38-.9.47-1.89.27-2.85-.17-.9-.74-1.67-1.54-2.11-.89-.23-1.54.97-2.25,1.31Z" style="fill: rgb(104, 225, 253);"/><path class="cls-25_bug-fixing-1-94 targetColor" d="M366.45,298.58c-.48.24-1.01.35-1.55.32-.27,0-.54.04-.79.13-.22.1-.41.24-.59.4l-2.7,2.25c-.35.23-.6.57-.73.97-.05.53.25,1.03.74,1.24.48.18,1,.24,1.5.18,2.32-.08,4.61-.45,6.84-1.09.32-.08.62-.24.85-.47.16-.21.27-.45.32-.7.26-.94.24-1.93-.07-2.85-.26-.72-.97-1.76-1.78-1.91-.88-.16-1.38,1.11-2.06,1.54Z" style="fill: rgb(104, 225, 253);"/><path class="cls-4_bug-fixing-1-94" d="M350.36,300.64c-.5.18-1.05.23-1.57.14-.27-.05-.54-.05-.8,0-.23.08-.44.19-.63.32l-2.96,1.9c-.38.17-.68.48-.85.85-.11.52.13,1.05.59,1.32.46.23.96.36,1.47.37,2.31.21,4.64.13,6.94-.24.34-.03.66-.15.93-.35.18-.18.32-.41.4-.66.38-.9.47-1.89.27-2.85-.17-.9-.74-1.67-1.54-2.11-.89-.23-1.54.97-2.25,1.31Z"/><path class="cls-8_bug-fixing-1-94" d="M366.45,298.58c-.48.24-1.01.35-1.55.32-.27,0-.54.04-.79.13-.22.1-.41.24-.59.4l-2.7,2.25c-.35.23-.6.57-.73.97-.05.53.25,1.03.74,1.24.48.18,1,.24,1.5.18,2.32-.08,4.61-.45,6.84-1.09.32-.08.62-.24.85-.47.16-.21.27-.45.32-.7.26-.94.24-1.93-.07-2.85-.26-.72-.97-1.76-1.78-1.91-.88-.16-1.38,1.11-2.06,1.54Z"/><path class="cls-25_bug-fixing-1-94 targetColor" d="M304.55,190.47c.85-.85,1.71-1.56,2.56-2.3.19-.17.42-.44.62-.43.39-.02.76.1,1.08.32.29.32.27.82-.05,1.11-.03.02-.06.05-.09.07-.81.76-1.63,1.51-2.5,2.32.24.27.46.56.66.85.54.83.99,1.71,1.35,2.63.11.67.73,1.14,1.41,1.04,1.2,0,2.41.09,3.61.16.75,0,1.09.39,1.07,1.04s-.41,1-1.14.97c-1.49-.05-2.96-.14-4.53-.21-.27,1.87-1.13,3.6-2.46,4.95l-9.8-11.18-1.67,1.51,9.89,11.32c-1.2,1.1-2.75,1.74-4.38,1.81-.73,0-.97.27-.93,1.02.07,1.1,0,2.2,0,3.31,0,.97-.43,1.53-1.15,1.52s-1.03-.48-1.03-1.54v-3.85c.03-.41-.2-.8-.58-.97-1.11-.68-2.16-1.48-3.38-2.32l-1.38,1.27-.85.79c-.72.65-1.31.72-1.75.22s-.32-1.04.42-1.71l2.46-2.26c-1.09-1.23-2.12-2.43-3.18-3.59-.21-.15-.46-.22-.71-.21-1.08-.08-2.15-.13-3.23-.19-.79,0-1.17-.39-1.16-1.06,0-.67.37-.97,1.2-.95,1.1,0,2.2.15,3.31.15.4-.02.77-.16,1.08-.42,3.2-2.89,6.37-5.79,9.54-8.72.25-.28.41-.63.44-1,.11-1.09.13-2.2.19-3.3,0-.21,0-.5.15-.6.32-.25.73-.6,1.05-.55.38.14.66.46.74.85.03,1.1,0,2.2-.13,3.3-.1.63.11,1.26.56,1.71.91.99,1.77,2.03,2.69,3.09Z" style="fill: rgb(104, 225, 253);"/><path class="cls-25_bug-fixing-1-94 targetColor" d="M296.39,186.1l-7.88,7.21c-1.11-1.18-1.59-2.82-1.31-4.41.36-2.88,3-4.93,5.88-4.56,1.28.16,2.45.79,3.3,1.76Z" style="fill: rgb(104, 225, 253);"/><path class="cls-7_bug-fixing-1-94" d="M304.56,190.45c.85-.85,1.71-1.56,2.56-2.3.19-.17.42-.44.62-.43.39-.02.76.1,1.08.32.29.32.27.82-.05,1.11-.03.02-.06.05-.09.07-.81.76-1.63,1.51-2.5,2.32.24.27.46.56.66.85.54.83.99,1.71,1.35,2.63.11.67.74,1.14,1.41,1.03,1.2,0,2.41.1,3.61.17.75,0,1.09.39,1.07,1.04s-.41,1-1.14.97c-1.49-.05-2.96-.14-4.53-.21-.27,1.87-1.13,3.6-2.46,4.95l-9.8-11.18-1.68,1.51,9.89,11.32c-1.2,1.1-2.75,1.74-4.38,1.81-.73,0-.97.27-.93,1.02.07,1.1.04,2.2.04,3.31,0,.97-.43,1.53-1.15,1.51s-1.03-.47-1.03-1.53v-3.86c.03-.41-.2-.8-.58-.96-1.11-.68-2.16-1.48-3.38-2.32l-1.41,1.29-.85.79c-.72.65-1.31.72-1.75.22s-.32-1.04.42-1.71l2.46-2.26c-1.09-1.23-2.12-2.43-3.18-3.6-.21-.14-.46-.21-.71-.2-1.08-.08-2.15-.13-3.23-.19-.79-.04-1.17-.39-1.16-1.06s.37-.97,1.2-.95c1.1,0,2.2.15,3.31.15.4-.02.78-.16,1.09-.42,3.19-2.89,6.37-5.79,9.53-8.72.25-.28.41-.63.44-1,.11-1.09.13-2.2.19-3.3,0-.21,0-.5.15-.6.32-.25.73-.6,1.05-.55.38.14.66.46.74.85.03,1.1,0,2.2-.13,3.3-.1.63.11,1.26.56,1.71.91.97,1.77,2.02,2.69,3.08Z"/><path class="cls-6_bug-fixing-1-94" d="M296.39,186.05l-7.88,7.21c-1.1-1.18-1.59-2.82-1.3-4.41.37-2.88,3.01-4.92,5.89-4.55,1.27.16,2.44.78,3.29,1.75Z"/></g></svg>